<?xml version="1.0" standalone="no"?>
<!DOCTYPE svg PUBLIC "-//W3C//DTD SVG 1.1//EN" "http://www.w3.org/Graphics/SVG/1.1/DTD/svg11.dtd" >
<svg xmlns="http://www.w3.org/2000/svg" xmlns:xlink="http://www.w3.org/1999/xlink" version="1.1">
<metadata>
Created by FontForge 20161003 at Sat Sep 16 06:41:25 2017
 By www-data
Copyright \(c\)  M. Klein, 2004. All rights reserved.
</metadata>
<defs>
<font id="MankSansMedium" horiz-adv-x="746" >
  <font-face 
    font-family="MankSansMedium"
    font-weight="500"
    font-style="italic"
    font-stretch="normal"
    units-per-em="1000"
    panose-1="2 0 6 3 2 0 0 9 0 3"
    ascent="800"
    descent="-200"
    x-height="481"
    cap-height="706"
    bbox="-56 -256 1040 981"
    underline-thickness="20"
    underline-position="-163"
    slope="-11"
    unicode-range="U+0005-E007"
  />
<missing-glyph horiz-adv-x="313" 
d="M269 326l4 22l-2 10l-10 9h-194l-7 -3q-10 -6 -16 -16l-4 -22l3 -10l9 -10h194q6 2 13 8t10 12z" />
    <glyph glyph-name=".notdef" horiz-adv-x="313" 
d="M269 326l4 22l-2 10l-10 9h-194l-7 -3q-10 -6 -16 -16l-4 -22l3 -10l9 -10h194q6 2 13 8t10 12z" />
    <glyph glyph-name=".null" horiz-adv-x="0" 
 />
    <glyph glyph-name="nonmarkingreturn" horiz-adv-x="333" 
 />
    <glyph glyph-name="breve" horiz-adv-x="443" 
d="M416 717q5 20 -15 20h-29q-6 -2 -13.5 -8t-10.5 -12q-5 -25 -17 -47.5t-29.5 -39t-40 -26t-49.5 -9.5q-55 0 -75 35t-9 87q0 6 -5 12t-11 8q-5 0 -9 0.5t-9 0.5q-11 0 -20.5 -4t-12.5 -17q-17 -84 18 -133.5t120 -49.5q40 0 76 13.5t64.5 38t48.5 58t28 73.5z" />
    <glyph glyph-name="dotaccent" horiz-adv-x="247" 
d="M206 640q3 16 -0.5 31t-12.5 26t-22.5 18t-29.5 7q-17 0 -33 -6.5t-30 -18t-24 -26.5t-13 -31q-3 -17 0.5 -31.5t13 -26t23 -18t29.5 -6.5t32.5 7t30 18t23.5 26t13 31z" />
    <glyph glyph-name="ring" horiz-adv-x="319" 
d="M277 605q5 25 0.5 46.5t-17 37t-32 24t-44.5 8.5t-48 -9t-42.5 -24.5t-33 -36.5t-18.5 -46q-5 -26 -1 -47.5t16.5 -37t32 -24.5t45.5 -9q25 0 48.5 9t42.5 25t32.5 37.5t18.5 46.5zM227 617q-8 0 -12.5 -11t-11.5 -23.5t-19.5 -23.5t-36.5 -11t-35 17t-6 40t23.5 39.5
t42.5 16.5z" />
    <glyph glyph-name="hungarumlaut" unicode="&#xa;" horiz-adv-x="393" 
d="M371 750q2 8 -3 13t-13 5h-36l-13 -5q-6 -7 -22 -24t-36.5 -39.5t-42.5 -47t-41 -45.5t-31.5 -36.5t-13.5 -18.5q-2 -8 3 -13.5t13 -5.5h20q3 1 20.5 17t41.5 39t50.5 50t49.5 51t38.5 40.5t15.5 19.5zM274 750q2 8 -2.5 13t-12.5 5h-37l-13 -5q-6 -7 -21.5 -24
t-36 -39.5t-43 -47t-41.5 -46t-31.5 -36.5t-13.5 -18q-2 -8 3.5 -13.5t13.5 -5.5h20q10 4 19 13l-3 -2l23 23l39 39l46 46t44 45t33.5 35.5t13.5 17.5z" />
    <glyph glyph-name="ogonek" horiz-adv-x="252" 
d="M202 -105q2 10 -7.5 16t-16.5 9l-11 -2l-11 -6q-6 -8 -15 -11.5t-17 -3.5q-13 0 -16 9.5t0 20.5q3 13 11.5 25t19 23l21 22t17.5 22q2 7 -3.5 9.5t-10.5 4.5q-2 6 -8.5 8.5t-13.5 2.5l-10 -5l-26 -26t-29 -31.5t-25 -33t-14 -30.5q-8 -36 10 -60.5t55 -24.5q11 0 27 5
t31 13t27 19.5t15 24.5z" />
    <glyph glyph-name="caron" horiz-adv-x="446" 
d="M420 721q2 8 -3 13.5t-13 5.5h-22q-3 -1 -15.5 -11t-29.5 -24.5t-36.5 -31.5t-37 -33t-31.5 -28t-19 -17q-3 4 -11.5 16.5t-19.5 28.5t-23.5 33.5t-23.5 32t-19.5 24.5t-10.5 10h-16q-10 0 -17.5 -4t-9.5 -15q-1 -3 5 -16t16 -31t22 -39t23 -40t19.5 -33.5t11.5 -20.5
q2 -1 5.5 -2.5t4.5 -1.5h63q1 0 5.5 1.5t6.5 2.5q9 13 36.5 39.5t58 55t55 53t26.5 32.5z" />
    <glyph glyph-name="dotlessi" unicode="&#xd;" horiz-adv-x="143" 
d="M57 19l94 443q-2 10 -9 16l-6 3h-27l-8 -3q-4 -3 -8.5 -7t-6.5 -9l-94 -443q1 -5 5.5 -11t9.5 -8h27q6 2 12.5 8t10.5 11z" />
    <glyph glyph-name="fraction" horiz-adv-x="633" 
d="M656 681q2 9 -3.5 14t-13.5 5h-34l-13 -6q-11 -11 -43 -45.5t-77 -83.5t-99 -108t-109 -119t-106.5 -116.5t-91.5 -101t-64.5 -72t-24.5 -29.5q-2 -8 3.5 -13.5t13.5 -5.5h35l13 6q13 14 46.5 49.5t78.5 84t99 106.5t108 117t104.5 114.5t89.5 99.5t63 72t25 32z" />
    <glyph glyph-name="fi" horiz-adv-x="484" 
d="M365 19l94 443q-2 11 -8 16l-7 3h-24l-9 -3q-4 -3 -8.5 -7t-6.5 -9l-94 -443q1 -6 5.5 -11.5t10.5 -7.5h24l9 4q4 3 8 6.5t6 8.5zM490 658l6 28l-5 13q-27 15 -62.5 25.5t-70.5 10.5q-65 0 -103 -24t-59.5 -62.5t-32.5 -86.5t-21 -96h-57l-9 -4q-4 -3 -8 -6.5t-6 -8.5
l-5 -22q1 -5 3.5 -8.5t4.5 -6.5l7 -4h57l-82 -387q1 -5 5.5 -11t9.5 -8h25q6 2 12.5 8t10.5 11l82 387h150l9 4q4 3 8 6.5t6 8.5l5 22q-1 5 -3.5 8.5t-4.5 6.5l-7 4h-150l19 92q6 25 15 46.5t23.5 37.5t35 25.5t48.5 9.5q29 0 59 -9.5t51 -25.5l11 -1l15 8z" />
    <glyph glyph-name="fl" horiz-adv-x="499" 
d="M380 19l140 661q-1 5 -3.5 9t-5.5 8q-32 17 -72 27.5t-80 10.5q-65 0 -103 -24t-60 -62t-32.5 -86.5t-20.5 -96.5h-58q-6 -2 -13 -8t-10 -11l-5 -22q1 -5 4.5 -10.5t7.5 -8.5h61l-82 -387q1 -6 5.5 -11.5t10.5 -7.5h24l9 4q4 3 8 6.5t6 8.5l82 387h150q10 3 19 12l4 7
l5 22l-2 9l-10 10h-154l19 92q6 25 15.5 47t24 38t35.5 25t49 9t53.5 -7t50.5 -16l-135 -635q1 -5 5.5 -11t9.5 -8h25q6 2 12.5 8t10.5 11z" />
    <glyph glyph-name="Lslash" horiz-adv-x="220" 
d="M180 483q6 29 -10 49.5t-45 20.5t-54 -20.5t-31 -49.5t10 -49t45 -20t54 20t31 49zM140 462l-8 -7l-6 7l9 7z" />
    <glyph glyph-name="lslash" horiz-adv-x="505" 
d="M515 483q6 29 -10 49.5t-45 20.5t-53.5 -20.5t-30.5 -49.5t9.5 -49t44.5 -20t54 20t31 49zM254 483q6 29 -10 49.5t-45 20.5t-53.5 -20.5t-30.5 -49.5t9.5 -49t44.5 -20t54 20t31 49zM341 -111l-3 8q-4 5 -13 9h-22q-10 -4 -16 -9l-4 -8q-8 -38 -36 -65.5t-68 -27.5
q-42 0 -56.5 27.5t-6.5 65.5l-3 8l-1 1q41 6 71 26.5t51.5 50t34.5 64.5t21 70l123 576l-3 10l-10 10h-149q-6 -2 -13.5 -8t-10.5 -12l-5 -22l3 -9l10 -10l105 -1l-115 -539q-5 -26 -15 -52.5t-25.5 -47.5t-38.5 -34.5t-55 -13.5q-13 0 -24 4.5t-20.5 10.5t-17.5 10.5
t-15 4.5q-9 0 -15.5 -6.5t-8.5 -15.5q-2 -8 -2 -18v-18l5 -11q31 -18 70 -20l-4 -8q-13 -66 13.5 -105.5t95.5 -39.5q66 0 111 41t62 104zM475 462l-8 -7l-5 7l8 7zM214 462l-8 -7l-6 7l9 7z" />
    <glyph glyph-name="space" unicode=" " horiz-adv-x="277" 
 />
    <glyph glyph-name="exclam" unicode="!" horiz-adv-x="148" 
d="M55 108l123 578q-1 6 -5.5 12t-9.5 8h-29q-7 -2 -13 -8t-9 -12l-123 -578q1 -5 4.5 -11t9.5 -8h29q5 2 12 8t11 11zM37 15l8 39q-2 10 -6 15l-8 4h-34l-8 -4q-4 -3 -8 -7t-6 -8l-7 -35q1 -6 7 -14l7 -4h34q5 2 11 6t10 8z" />
    <glyph glyph-name="quotedbl" unicode="&#x22;" horiz-adv-x="227" 
d="M203 689q2 9 -2.5 14.5t-13.5 5.5h-25l-9 -4l-7.5 -7.5t-5.5 -8.5l-34 -159q2 -10 8 -16l7 -4h17q5 2 12 7t11 9zM121 692q2 8 -2.5 12.5t-12.5 4.5h-25q-6 -2 -13.5 -8t-10.5 -12l-34 -159l3 -10l10 -10h21q5 2 12 7t11 9l40 163l-1 -2z" />
    <glyph glyph-name="numbersign" unicode="#" horiz-adv-x="555" 
d="M526 471l6 26l-3 8q-6 5 -13 10h-82l45 142q2 8 -2.5 15t-12.5 7h-25q-5 -2 -12 -6.5t-11 -8.5l-44 -149h-113l43 142q2 8 -2 15t-13 7h-25q-5 -2 -12 -6.5t-11 -8.5l-44 -149h-92q-5 -2 -9 -4.5t-9 -5.5l-4 -8l-6 -26l1 -8l7 -8l7 -3h86q-8 -29 -17.5 -59.5t-18.5 -59.5
h-87q-7 -2 -14 -8t-9 -12l-6 -26l2 -8q3 -3 6.5 -5.5t6.5 -4.5h81l-44 -149q0 -6 3.5 -12t11.5 -6h24q5 1 12 5.5t10 7.5q12 38 23.5 77t23.5 77h112l-44 -149q0 -6 3.5 -12t11.5 -6h25q5 1 12 5.5t10 7.5q13 38 24 77t22 77h92q5 2 9 4.5t9 5.5l5 8l6 26l-2 8q-5 9 -13 12
h-86q8 30 17 60t18 59h88l8 3q10 7 15 16zM352 452l-36 -119h-112q9 30 18.5 59.5t17.5 59.5h112z" />
    <glyph glyph-name="dollar" unicode="$" horiz-adv-x="478" 
d="M400 194q12 55 -4 89t-46.5 56t-68 36.5t-69 31.5t-50 41t-9.5 64q6 30 19.5 50t32.5 31.5t43 16t51 4.5q28 0 54.5 -4t51.5 -12q9 -3 17.5 -7.5t18.5 -4.5q8 0 13.5 6t7.5 13l6 29q-2 5 -3.5 9.5t-3.5 8.5q-57 20 -115 23l17 52q3 9 -2.5 15t-13.5 6h-23q-14 -5 -23 -19
q-3 -14 -5 -27t-4 -27q-78 -3 -132 -42.5t-71 -120.5q-12 -56 4 -90t47 -55t68.5 -35t69.5 -30.5t50 -41t9 -66.5q-6 -30 -23 -50t-40 -32t-50 -17t-52 -5q-10 0 -26.5 1.5t-33.5 4.5t-32.5 7t-23.5 8q-10 5 -19 12t-21 7q-8 0 -13.5 -6t-7.5 -14l-9 -38l4 -14
q32 -13 67 -20t70 -9l-18 -63q-2 -8 0 -11.5t6 -5.5t9 -2h11q11 0 22 2.5t14 16.5q3 16 4 31.5t4 31.5q39 1 75.5 11t65.5 30t50 50.5t30 73.5z" />
    <glyph glyph-name="percent" unicode="%" horiz-adv-x="589" 
d="M360 569q14 66 -10 104t-93 38q-68 0 -109.5 -38t-55.5 -104q-7 -31 -3.5 -57.5t16.5 -45.5t36 -30t55 -11t59.5 11t48.5 30.5t35.5 45.5t20.5 57zM606 690q2 8 -3 13.5t-13 5.5h-31l-12 -6q-10 -11 -39 -46.5t-70.5 -85t-91.5 -109.5t-100.5 -121t-98 -118.5
t-84.5 -102.5t-59.5 -72.5t-22.5 -28.5q-3 -19 16 -19h32l12 6q11 13 41 49t71.5 86t91 109.5t100 120t97.5 117.5t83 101.5t58.5 72t22.5 28.5zM496 138q14 66 -9.5 104t-92.5 38t-110 -38t-55 -104q-6 -31 -3 -57.5t16 -45.5t36 -30t55 -11t59 11t48 30.5t35.5 45.5
t20.5 57zM298 569q-8 -34 -29.5 -59.5t-59.5 -25.5q-37 0 -50 25.5t-5 59.5q8 35 30.5 59t60.5 24t49.5 -24t3.5 -59zM435 138q-7 -33 -30.5 -59t-59.5 -26q-37 0 -49 25.5t-5 59.5q8 35 30 59t60 24t50 -24t4 -59z" />
    <glyph glyph-name="ampersand" unicode="&#x26;" horiz-adv-x="627" 
d="M509 18q1 3 -7.5 19t-19 35t-20.5 36.5t-13 22.5q13 18 27 40.5t27 46.5t22.5 47.5t14.5 43.5q2 12 -5.5 19t-18.5 7q-12 0 -22.5 -7t-12.5 -20q-8 -35 -24.5 -70.5t-38.5 -66.5q-33 62 -59.5 127.5t-52.5 131.5q27 12 55 27t52.5 34t43 43t24.5 54q12 55 -16.5 89
t-82.5 34q-30 0 -58.5 -8.5t-52 -25t-40.5 -41t-24 -56.5q-7 -35 -1 -66.5t16 -60.5q-38 -20 -71 -43.5t-59.5 -52t-45 -62.5t-27.5 -75q-23 -107 24 -166.5t154 -59.5q53 0 105 22t96 61q10 -19 21 -37t23 -35l8 -4l36 -1q7 0 14 5t9 13zM418 588q-4 -19 -19 -35.5t-35 -30
t-41.5 -24t-37.5 -17.5q-9 22 -13.5 47.5t0.5 51.5q8 35 36.5 53.5t61.5 18.5q27 0 40 -19t8 -45zM370 124q-33 -33 -76 -52t-85 -19q-37 0 -64 12.5t-43 34.5t-20.5 53t3.5 67q6 29 21 56.5t36.5 51t47.5 42.5t54 32q28 -72 59.5 -141t66.5 -137z" />
    <glyph glyph-name="quotesingle" unicode="'" horiz-adv-x="143" 
d="M121 689q2 9 -3 14.5t-13 5.5h-26q-6 -2 -13 -8t-10 -12l-34 -159l3 -10l10 -10h21l9 4l13 12z" />
    <glyph glyph-name="parenleft" unicode="(" horiz-adv-x="246" 
d="M129 20q1 4 0 12t-3.5 16l-5 16t-4.5 12l1 -1q-10 31 -15.5 69t-6.5 78.5t2.5 80.5t11.5 76q14 66 42.5 130.5t65.5 125.5q5 8 15 21.5t20.5 28.5t18.5 28t10 19q2 10 -8.5 18t-17.5 12q-5 0 -12 -2t-12 -5q-35 -38 -65 -84t-54.5 -95.5t-42 -100t-27.5 -96.5t-14 -97.5
t-1 -102t13.5 -97.5t28.5 -85q10 -7 22 -7l10 5t12 7t10.5 8.5t5.5 9.5z" />
    <glyph glyph-name="parenright" unicode=")" horiz-adv-x="246" 
d="M206 379q10 46 13.5 96.5t0 100t-14.5 95.5t-29 84q-11 7 -19 7q-9 -3 -23.5 -11.5t-16.5 -18.5q-2 -7 1 -20t7 -28t8 -28.5t6 -21.5v1q11 -62 12.5 -126t-12.5 -130q-15 -70 -43 -139t-72 -132q-3 -5 -12 -17t-19 -26t-18 -25.5t-9 -14.5q-2 -14 6 -22t19 -13q13 0 24 7
q35 38 65.5 85t55 97.5t42.5 102t28 97.5z" />
    <glyph glyph-name="asterisk" unicode="*" horiz-adv-x="454" 
d="M454 491q2 10 -4 19q-25 17 -51.5 31.5t-55.5 27.5q34 14 67 28.5t66 31.5q2 3 5 6t5 6l1 10l-13 31q-7 7 -17 7q-33 -16 -64 -33.5t-62 -37.5q8 17 13.5 35.5t9.5 35.5l12 56l-2 8q-3 5 -12 8h-35q-3 -2 -7 -4t-6 -4l-6 -8l-12 -56q-4 -18 -6.5 -36t-4.5 -36
q-25 20 -49.5 38.5t-53.5 33.5l-9 -1l-11 -5l-29 -34q-1 -5 0.5 -10.5t3.5 -9.5q26 -17 54.5 -31t57.5 -28q-9 -3 -33 -11.5t-48.5 -19t-44.5 -22t-22 -20.5q0 -2 1.5 -8t4 -12.5t4.5 -12.5t3 -8q4 -3 8.5 -4.5t9.5 -2.5q34 17 67 35t65 38q-5 -18 -10.5 -36t-9.5 -36
l-14 -69q2 -9 7 -13l6 -3h35l9 3q6 4 11 13l15 69q4 17 5 34t3 34q21 -20 44.5 -37t49.5 -31q5 1 10.5 2.5t10.5 4.5z" />
    <glyph glyph-name="plus" unicode="+" horiz-adv-x="408" 
d="M361 357l5 27l-1 8q-3 8 -13 11l-112 -1l25 112q0 6 -4.5 12t-10.5 8h-24q-6 -2 -13 -8t-10 -12l-23 -112l-112 1q-11 -4 -17 -11l-5 -8l-4 -22l1 -8l5 -8l7 -4l113 1l-25 -112l2 -8q2 -3 5 -6t8 -5h24q5 2 9 5l8 6l6 8l23 112l111 -1l9 4z" />
    <glyph glyph-name="comma" unicode="," horiz-adv-x="199" 
d="M174 112q2 8 -2.5 13t-12.5 5h-37q-5 -2 -10 -5.5t-9 -7.5q-3 -8 -15.5 -31.5t-26.5 -49t-25 -46t-11 -22.5q-2 -8 3 -13.5t13 -5.5h21q5 3 8 6t7 6v-1q1 1 1.5 2t1.5 2q10 13 16 23q4 6 16 25t25.5 40t24.5 39t12 21z" />
    <glyph glyph-name="hyphen" unicode="-" horiz-adv-x="313" 
d="M269 269l4 22l-2 10l-10 9h-194q-9 -4 -17 -11l-6 -8l-4 -22l3 -10l9 -10h194q6 2 13 8t10 12z" />
    <glyph glyph-name="period" unicode="." horiz-adv-x="234" 
d="M97 14l10 46l-3 10l-10 9h-48q-9 -3 -19 -11l-5 -8l-10 -46l3 -10l10 -10h48q6 2 13.5 8t10.5 12z" />
    <glyph glyph-name="slash" unicode="/" horiz-adv-x="399" 
d="M427 686q3 20 -17 20h-31l-14 -8q-7 -12 -27.5 -47t-49.5 -85t-63.5 -109.5t-69.5 -120t-68 -117t-58.5 -101t-41 -71.5t-15.5 -28q-2 -9 3.5 -14t13.5 -5h32l14 8q100 170 196.5 338.5t195.5 339.5z" />
    <glyph glyph-name="zero" unicode="0" horiz-adv-x="619" 
d="M573 355q12 60 10.5 123t-22.5 114.5t-63.5 85t-112.5 33.5t-126.5 -33.5t-99.5 -85.5t-71 -115t-40 -122q-13 -60 -12.5 -124t20.5 -116.5t63 -86.5t115 -34q70 0 127 34.5t99.5 87.5t71 116.5t41.5 122.5zM506 355q-10 -45 -31 -97.5t-53.5 -98t-77 -76t-99.5 -30.5
t-86 30.5t-44.5 76t-12 98.5t11.5 97q6 29 18 63.5t30 68.5t40.5 66t49.5 55t57.5 35.5t64.5 8.5q24 -3 42.5 -10.5t33 -19t26.5 -27t23 -35.5q14 -24 17 -58.5t1 -66t-6.5 -54.5t-4.5 -26z" />
    <glyph glyph-name="one" unicode="1" horiz-adv-x="395" 
d="M281 18l4 23q-1 6 -5.5 11.5t-9.5 7.5h-70l133 629q0 6 -5 12t-11 8h-30l-174 -69l-11 -13q-1 -4 -2 -7.5t-2 -7.5q-2 -8 -0.5 -17.5t12.5 -9.5q5 0 25 7.5t44 17t46 18.5t31 12l-123 -580h-71q-7 -2 -14 -7.5t-11 -11.5l-4 -23q1 -6 5.5 -11.5t10.5 -7.5h208q6 2 13 7.5
t11 11.5z" />
    <glyph glyph-name="two" unicode="2" horiz-adv-x="493" 
d="M377 19l30 141q-1 6 -5.5 12t-9.5 8h-23l-10 -5l-13 -12l-21 -100q-31 -2 -61 -3t-60 -1q-33 0 -66 0.5t-66 0.5q29 28 67.5 62.5t79.5 73.5t82 80.5t75 83.5t58 83t32 78q11 52 6.5 88t-25 58t-56 32t-85.5 10q-37 0 -74.5 -6t-74.5 -16q-5 -4 -10 -9t-7 -10
q-1 -5 -3 -12.5t-2.5 -15.5t2 -13.5t9.5 -5.5q17 0 35 4t36.5 9.5t37.5 9.5t37 4q64 0 93.5 -30t15.5 -97q-7 -35 -33.5 -75.5t-64 -83t-82 -86t-89 -84t-84.5 -75.5t-67 -62l-7 -36q0 -5 2.5 -8.5t4.5 -6.5l8 -4h365q5 2 12 8t11 11z" />
    <glyph glyph-name="three" unicode="3" horiz-adv-x="473" 
d="M394 194q14 68 -14.5 112t-85.5 67q23 11 47.5 28t46 38t37 44.5t20.5 48.5q10 45 3 78.5t-27.5 56t-53.5 33.5t-76 11q-35 0 -71 -6.5t-71 -16.5l-8 -8t-6 -9l-7 -25q-2 -8 -1 -18t13 -10q9 0 25 5t35.5 11.5t40 11.5t38.5 5q54 0 84 -31t18 -88q-7 -32 -29 -56.5
t-52 -42t-62.5 -27t-60.5 -9.5q-4 -3 -10 -8.5t-9 -10.5l-4 -22l3 -10l8 -10q32 0 64.5 -8t57.5 -25.5t37.5 -44.5t4.5 -64q-7 -34 -26 -60t-45 -44t-57 -27t-62 -9q-18 0 -37 5t-37 11.5t-33 11.5t-25 5q-7 0 -14 -6t-8 -13l-8 -35l1 -8l9 -11q68 -20 140 -20q45 0 89 13
t80 38.5t62 62.5t36 86z" />
    <glyph glyph-name="four" unicode="4" horiz-adv-x="587" 
d="M515 235l5 22l-3 10l-10 10h-98l88 414l-1 8q-6 9 -14 12h-31l-11 -6l-414 -444l-6 -26l3 -10l10 -9h300l-42 -197q0 -5 2.5 -8.5t4.5 -6.5l7 -4h27q10 3 19 12l4 7l42 197h94l9 3q4 3 8.5 7t6.5 9zM414 596l-69 -319h-228q75 80 148.5 159t148.5 160z" />
    <glyph glyph-name="five" unicode="5" horiz-adv-x="461" 
d="M414 202q47 218 -171 218q-17 0 -33 -0.5t-33 -1.5q15 57 29.5 113t28.5 113q35 1 69 1.5t68 0.5q24 0 48.5 -0.5t47.5 -1.5q19 7 23 25q1 4 2 11t0.5 13.5t-3.5 11t-9 4.5q-69 0 -139 -2.5t-139 -2.5q-5 -2 -12 -7t-11 -9l-80 -318q-2 -9 3 -14t13 -5q29 0 57.5 4.5
t57.5 4.5q75 0 104 -42.5t13 -115.5q-8 -36 -26.5 -63.5t-45 -46.5t-58.5 -29t-66 -10q-17 0 -33.5 4.5t-31.5 10.5t-28.5 10.5t-23.5 4.5q-8 0 -14.5 -5.5t-8.5 -13.5l-7 -33q1 -5 4.5 -10.5t6.5 -8.5q57 -18 123 -18q47 0 92 13.5t82 40t63.5 65.5t37.5 89z" />
    <glyph glyph-name="six" unicode="6" horiz-adv-x="547" 
d="M474 223q23 106 -17 161t-148 55q-47 0 -94.5 -18t-90.5 -45q20 49 53 97.5t76 86.5t93.5 62t105.5 24q6 0 14 -1t16 0t14.5 5t8.5 13l6 25q-1 5 -3 8.5t-4 7.5l-7 4l-32 1q-35 1 -70 -9t-69 -26q-63 -29 -112 -71t-85 -92.5t-60 -108.5t-37 -118q-11 -53 -10 -105
t19.5 -93t55.5 -66.5t98 -25.5q53 0 99 16t82 45.5t61.5 72t36.5 95.5zM408 223q-8 -37 -26 -68.5t-44 -54t-59 -35t-71 -12.5q-42 0 -67.5 23t-37.5 57.5t-12.5 75t7.5 75.5v4q46 37 94 63t103 26q75 0 101.5 -41t11.5 -113z" />
    <glyph glyph-name="seven" unicode="7" horiz-adv-x="489" 
d="M509 659l6 27q-2 10 -8 16l-7 4q-182 -3 -363 0l-12 -6l-9 -12l-24 -115q0 -7 8 -15l7 -4h22l11 5l12 11l16 74q61 3 124 3h144q-7 -12 -27 -45t-48 -79t-61 -100.5t-66.5 -110t-64.5 -108t-55.5 -93.5t-39.5 -66.5t-15 -27.5q-2 -8 3 -12.5t12 -4.5h30l14 8z" />
    <glyph glyph-name="eight" unicode="8" horiz-adv-x="549" 
d="M470 199q12 57 -2.5 106t-62.5 75q41 28 73.5 70t42.5 87q10 48 1 81t-33 54t-60 30t-79 9t-83 -9.5t-72 -30t-55.5 -53.5t-33.5 -81q-11 -50 1.5 -92.5t51.5 -67.5q-52 -28 -93 -75.5t-53 -102.5q-11 -52 -1.5 -90.5t35 -64t64.5 -38t88 -12.5t93 12.5t80 38t61.5 64
t36.5 90.5zM342 653q27 0 50 -8t39 -23t23 -36t3 -48t-17 -51t-34 -42t-48.5 -28.5t-61.5 -10.5q-32 0 -58 7.5t-43.5 23t-24 40.5t1.5 60q7 32 24 54.5t40.5 36t51 19.5t54.5 6zM404 199q-8 -37 -26 -64.5t-43.5 -45.5t-57.5 -26.5t-66 -8.5q-35 0 -62.5 9t-45.5 27t-25 45
t1 64q8 36 26 63.5t43.5 46.5t57 28.5t65.5 9.5q33 0 61 -10t46.5 -28.5t26 -46t-0.5 -63.5z" />
    <glyph glyph-name="nine" unicode="9" horiz-adv-x="547" 
d="M523 451q12 57 8.5 104.5t-24.5 82t-61 54t-101 19.5q-50 0 -94 -16.5t-80 -46.5t-61 -71t-35 -90q-10 -47 -6 -87.5t22.5 -71.5t52 -48.5t83.5 -17.5q49 0 99 16.5t96 42.5q-15 -43 -38.5 -90.5t-55.5 -87.5t-74.5 -66t-95.5 -26q-21 0 -40.5 6.5t-41.5 6.5
q-9 0 -16.5 -4.5t-9.5 -15.5l-6 -27q3 -10 10 -19q22 -6 44.5 -8t45.5 -2q59 0 107 21.5t87 58t69 84t52.5 99t38 103.5t25.5 97zM457 451q-3 -12 -5.5 -24t-6.5 -24q-50 -32 -99 -55.5t-105 -23.5q-35 0 -57 14t-34 36.5t-13.5 52t4.5 60.5q7 34 25 64t43 52.5t56.5 35.5
t66.5 13q46 0 74.5 -16t42.5 -43.5t15.5 -64t-7.5 -77.5z" />
    <glyph glyph-name="colon" unicode=":" horiz-adv-x="163" 
d="M151 315l10 47l-3 9l-10 10h-48q-6 -2 -13 -7.5t-11 -11.5l-10 -47l3 -9l10 -10h48q10 3 18 11zM87 14l11 51l-3 9l-10 10h-48q-11 -4 -18 -11l-6 -8l-11 -51l3 -10l10 -10h48q6 2 13.5 8t10.5 12z" />
    <glyph glyph-name="semicolon" unicode=";" horiz-adv-x="206" 
d="M198 315l10 47l-3 9l-10 10h-49l-9 -4q-4 -3 -8 -6.5t-6 -8.5l-10 -47q0 -5 4 -10.5t8 -8.5h50q5 2 9 5l8 6zM148 112q2 8 -2.5 13t-12.5 5h-37l-12 -6q-2 -2 -9 -14t-16 -28.5t-19.5 -36t-19.5 -36t-15.5 -28t-6.5 -13.5q-3 -19 16 -19h21q5 3 8.5 6t7.5 6l-1 -1
q2 1 2 2t1 2q10 13 16 23q4 6 16.5 25t26 40t24.5 39t12 21z" />
    <glyph glyph-name="less" unicode="&#x3c;" horiz-adv-x="421" 
d="M344 218q1 7 -12 19.5t-34 28.5t-47.5 32.5t-51 31.5t-43.5 26.5t-27 15.5q1 2 22 12.5t52 26.5t67 34t66.5 35t51.5 29.5t22 17.5q3 14 -5 23t-17 14q-5 -1 -28 -12t-56.5 -28.5t-72.5 -37.5t-74.5 -39t-63.5 -33.5t-39 -20.5l-8 -12l-4 -16l4 -11q7 -5 28.5 -20t49 -34
t58.5 -40t57 -38t44.5 -28.5t21.5 -11.5t9.5 4.5t12.5 10.5t11 12t6 9z" />
    <glyph glyph-name="equal" unicode="=" horiz-adv-x="408" 
d="M377 434l6 28l-1 8l-6 8l-7 3h-284l-9 -3l-8 -8l-5 -8l-5 -23l1 -8l6 -8l7 -3h284l9 3zM344 278l6 28l-1 8l-6 8l-7 4h-284l-9 -4l-8 -8l-5 -8l-5 -23q0 -5 2.5 -8.5t4.5 -6.5l7 -4h284q5 2 11 6t10 8z" />
    <glyph glyph-name="greater" unicode="&#x3e;" horiz-adv-x="421" 
d="M375 365l4 16l-4 12q-9 6 -30 20.5t-49 33.5t-58 39t-56 37.5t-44.5 28.5t-22.5 12q-12 -5 -23.5 -14t-14.5 -23q-2 -7 11.5 -19.5t34.5 -28t47.5 -32.5t50.5 -31.5t43.5 -26t26.5 -16.5q-63 -32 -125.5 -64t-123.5 -68q-2 -1 -6.5 -4t-10 -6.5t-10 -7t-4.5 -4.5
q0 -3 2 -9t5.5 -12.5t8 -11t7.5 -4.5t26 11.5l57 28.5t73.5 38t75.5 40t63.5 34t37.5 20z" />
    <glyph glyph-name="question" unicode="?" horiz-adv-x="461" 
d="M445 487q10 49 5 90.5t-26 71t-57 46t-87 16.5q-37 0 -81.5 -8.5t-79.5 -27.5l-9 -12l-3 -15q-1 -5 -2 -11.5t-0.5 -12.5t3.5 -10t10 -4q3 0 19.5 6.5t38.5 14.5t46.5 14.5t45.5 6.5q36 0 60.5 -13t38 -35.5t16.5 -52.5t-4 -64q-8 -39 -37.5 -73t-68.5 -62.5t-81.5 -49.5
t-76.5 -33l-10 -13l-32 -148l2 -7q5 -9 13 -12h14q10 0 23.5 2.5t16.5 16.5q7 29 11.5 59t9.5 59q38 17 83.5 44t86.5 61t72 74t40 82zM121 15l8 39q-2 10 -6 15l-7 4h-35l-9 -4q-4 -3 -7 -7t-5 -8l-8 -35q1 -4 2.5 -7.5t3.5 -6.5l8 -4h35l8 4z" />
    <glyph glyph-name="at" unicode="@" horiz-adv-x="697" 
d="M569 6l68 322q10 45 -3 76t-40 50t-64 27.5t-75 8.5q-69 0 -126.5 -22t-102.5 -62t-75.5 -95t-44.5 -122q-15 -70 -6 -126.5t39 -96t81.5 -61t122.5 -21.5l12 6l8 9l2 12q4 17 4 26t-19 11t-37 3.5t-37 6.5q-38 12 -62.5 34.5t-37 52.5t-13.5 67t7 77q11 51 35 95
t59 76.5t80 50.5t99 18q23 0 49 -5t47 -16.5t32 -31t5 -48.5l-2 -10q-20 4 -39.5 6t-39.5 2q-42 0 -84.5 -7.5t-78.5 -26.5t-63 -51.5t-37 -82.5q-15 -70 15.5 -114.5t102.5 -44.5q44 0 88.5 16t82.5 48l-9 -52q1 -6 5.5 -11.5t10.5 -7.5h20q5 2 10.5 6t10.5 8zM570 273
q-6 -2 -10 -18.5t-11.5 -40t-20 -50.5t-33.5 -50t-53.5 -38t-79.5 -15q-43 0 -58 28.5t-7 68.5q6 30 23 49.5t40.5 32t52 18.5t56.5 9t54.5 4t46.5 2z" />
    <glyph glyph-name="A" unicode="A" horiz-adv-x="649" 
d="M537 17q1 5 -2 29.5t-8 59.5t-11 75.5t-12 77.5t-10.5 66.5t-5.5 40.5l-46 332l-12 8h-42l-15 -8q-97 -172 -194 -341t-196 -340q-1 -8 4 -12.5t13 -4.5h30l15 8l76 130t74 131h238l40 -261l11 -8l24 -1q9 0 17.5 3.5t11.5 14.5zM427 330h-199l161 278z" />
    <glyph glyph-name="B" unicode="B" horiz-adv-x="453" 
d="M373 184q6 26 6 52t-6.5 49t-20.5 42t-36 31q47 25 78 68.5t41 91.5q11 53 5 89.5t-27.5 59t-58 32.5t-86.5 10q-66 0 -133 -3q-4 -3 -10.5 -9t-9.5 -11l-142 -667l3 -9l10 -10q33 0 65.5 -3t65.5 -3q47 0 89 10.5t75.5 33.5t57 59t34.5 87zM309 184q-8 -37 -24.5 -62.5
t-40 -41t-53 -22t-63.5 -6.5q-21 0 -42 0.5t-41 4.5l57 268q10 0 20.5 0.5t20.5 0.5h51q66 0 98 -37t17 -105zM380 514q-8 -37 -25 -62.5t-40.5 -41t-53 -22t-63.5 -6.5q-21 0 -42 0.5t-40 4.5l57 268q10 0 20 0.5t20 0.5h51q66 0 98 -37t18 -105z" />
    <glyph glyph-name="C" unicode="C" horiz-adv-x="667" 
d="M560 75q2 9 0 16.5t-13 7.5q-4 0 -10 -2h1q-54 -17 -108.5 -30.5t-107.5 -13.5q-69 0 -115 24t-71 65t-29.5 97t9.5 121q28 137 109.5 214.5t224.5 77.5q51 0 94 -10t88 -27l-4 3q2 -1 6 -2.5t5 -1.5q8 0 14.5 5t8.5 13l7 33l-5 12q-46 20 -97 27t-105 7
q-175 0 -275.5 -90t-136.5 -261q-18 -82 -11.5 -149.5t38 -115.5t89.5 -74.5t144 -26.5q25 0 55 3t61.5 9t62 14.5t54.5 18.5l11 11z" />
    <glyph glyph-name="D" unicode="D" horiz-adv-x="674" 
d="M628 360q20 94 9.5 160t-48.5 108t-103.5 61.5t-155.5 19.5q-48 0 -94.5 -1.5t-94.5 -1.5q-6 -2 -12 -8t-10 -12l-141 -665q1 -5 4 -10t6 -9q51 -2 101.5 -5t102.5 -3q87 0 159 25t127.5 72.5t93.5 115t56 153.5zM562 360q-15 -69 -46 -125.5t-76.5 -96.5t-104.5 -62
t-130 -22q-39 0 -77.5 1.5t-76.5 5.5l124 582q36 3 71.5 4t70.5 1q74 0 127.5 -16t85 -51t40 -89.5t-7.5 -131.5z" />
    <glyph glyph-name="E" unicode="E" horiz-adv-x="434" 
d="M354 16l2 6q1 6 2.5 13.5t1.5 13.5q0 7 -3.5 12t-11.5 5q-33 0 -66.5 -2.5t-66.5 -2.5h-66q-16 0 -31 0.5t-31 0.5l58 273h137q7 0 22 -1.5t31.5 -0.5t29.5 5.5t15 15.5l6 26l-3 8q-5 8 -13 11l-212 -3l53 249h128q30 0 60 -2t60 -2q20 0 23 19l6 26l-2 8l-5 8l-7 4h-296
q-7 -2 -14 -8t-9 -12q-34 -168 -69.5 -333.5t-72.5 -333.5q4 -13 15 -19q77 0 153.5 -0.5t152.5 -2.5q6 2 13 8t10 11z" />
    <glyph glyph-name="F" unicode="F" horiz-adv-x="407" 
d="M427 656l7 30l-2 8l-5 8l-7 4h-283l-9 -4q-9 -6 -14 -16l-142 -667q1 -5 3.5 -8.5t4.5 -6.5l7 -4h26l9 4q4 3 8 6.5t6 8.5l66 310h137q12 0 27 -2t29 -1t25 8t15 25q2 11 1.5 21.5t-14.5 10.5h-207l54 252q29 0 58 0.5t58 0.5h53q17 0 33.5 -0.5t33.5 -1.5l10 4z" />
    <glyph glyph-name="G" unicode="G" horiz-adv-x="665" 
d="M552 49l64 299l-3 10l-9 9h-194l-8 -3q-4 -3 -8.5 -7t-6.5 -9l-5 -22l3 -10l10 -10h148l-47 -223q-44 -13 -87.5 -21.5t-86.5 -8.5q-69 0 -115.5 23.5t-71.5 65t-29.5 97.5t9.5 121q28 137 110.5 214.5t225.5 77.5q71 0 130 -20l55 -18q9 0 17 3.5t10 14.5l7 30
q-1 8 -9 16q-45 20 -95.5 26.5t-103.5 6.5q-174 0 -275 -90.5t-137 -260.5q-18 -82 -11.5 -149.5t38.5 -115.5t90 -74.5t144 -26.5q25 0 55 3t60.5 9t60.5 14t55 18z" />
    <glyph glyph-name="H" unicode="H" horiz-adv-x="647" 
d="M529 19l142 667l-3 10l-10 10h-29l-9 -4q-9 -6 -14 -16l-60 -280h-424l60 280q-2 10 -8 16l-7 4h-25q-6 -2 -14 -8t-10 -12l-142 -667l3 -9l10 -10h29l9 4q4 3 8 6.5t6 8.5l69 326h424l-69 -326q1 -5 3.5 -8.5t4.5 -6.5l7 -4h25q6 2 13 7.5t11 11.5z" />
    <glyph glyph-name="I" unicode="I" horiz-adv-x="312" 
d="M199 18l5 23q-4 13 -15 19h-62l133 626q0 6 -4.5 12t-10.5 8h-27q-6 -2 -13 -8t-10 -12l-133 -626h-63q-6 -2 -13 -8t-10 -11l-5 -23q1 -5 5.5 -11t9.5 -8h190q5 2 12 8t11 11z" />
    <glyph glyph-name="J" unicode="J" horiz-adv-x="355" 
d="M271 109l123 576l-2 10l-10 10h-150l-9 -4q-9 -6 -14 -16l-5 -22q1 -5 4.5 -10.5t7.5 -8.5l106 -1l-115 -539q-5 -26 -15 -52.5t-26 -47.5t-39.5 -34.5t-54.5 -13.5q-23 0 -40 11t-36 19q-10 0 -16.5 -6.5t-8.5 -15.5q-2 -8 -2 -18v-18l4 -11q18 -11 41 -16t46 -5
q48 0 84 17.5t61 47t41 68t25 80.5z" />
    <glyph glyph-name="K" unicode="K" horiz-adv-x="471" 
d="M355 18q0 2 -13.5 26t-35.5 59.5t-47.5 77t-49.5 79t-42 65.5t-23 37q8 7 35 33t62.5 61.5t75.5 74.5t73.5 73t55.5 57t23 26q2 8 -2.5 13.5t-12.5 5.5h-34q-6 -2 -27.5 -21.5t-51 -48.5t-64 -63.5t-65.5 -66t-55 -56t-33 -33.5l57 269l-3 10l-9 10h-30q-8 -3 -19 -12
l-4 -8l-142 -667l2 -9l10 -10h30l9 4q4 3 8 6.5t6 8.5l60 283l188 -297l9 -5h14q10 0 19 1.5t16.5 5t9.5 11.5z" />
    <glyph glyph-name="L" unicode="L" horiz-adv-x="422" 
d="M311 38q2 10 0 18.5t-14 8.5q-29 0 -58.5 -2t-58.5 -2h-133l133 625q-1 6 -5.5 12t-10.5 8h-27l-9 -4l-7.5 -7.5t-5.5 -8.5l-142 -667q2 -4 3.5 -7.5t3.5 -7.5l7 -4h296l9 4q4 3 8 6.5t6 8.5q1 5 2.5 9.5t2.5 9.5z" />
    <glyph glyph-name="M" unicode="M" horiz-adv-x="819" 
d="M713 19l142 667l-3 10l-10 10h-37l-13 -7q-109 -152 -216 -303.5t-215 -303.5l-158 606l-10 8h-33q-6 -2 -14 -8t-10 -12l-142 -667l3 -9l10 -10h29q6 2 13 8t10 11q28 134 55 266t56 266q32 -139 71 -273t76 -271l11 -7h26l13 7q100 140 199 277.5t200 276.5l-118 -542
q1 -5 4.5 -10.5t7.5 -8.5h29q6 2 13 7.5t11 11.5z" />
    <glyph glyph-name="N" unicode="N" horiz-adv-x="638" 
d="M520 19l142 667l-3 10l-10 10h-31q-7 -2 -14 -8t-9 -12q-29 -143 -58.5 -284t-58.5 -284q-72 148 -146 292.5t-151 289.5l-9 6h-30q-6 -2 -14 -8t-10 -12l-142 -667l3 -9l10 -10h29q6 2 13 8t10 11q29 143 59 284.5t60 284.5q72 -149 148 -292.5t151 -289.5l9 -6h28
q6 2 13 7.5t11 11.5z" />
    <glyph glyph-name="O" unicode="O" 
d="M699 360q17 80 11.5 145t-35.5 110.5t-86 70.5t-140 25t-150.5 -25t-116 -70.5t-82 -110.5t-49.5 -145q-17 -77 -11 -144t35.5 -116.5t84.5 -77.5t138 -28q81 0 147.5 29t117.5 78.5t85.5 116.5t50.5 142zM632 360q-13 -60 -40 -115.5t-67.5 -98t-94.5 -68t-121 -25.5
q-66 0 -109.5 25.5t-66 68t-26 98t9.5 115.5q13 64 39.5 117.5t66 92.5t93 60.5t122.5 21.5t114.5 -22t65.5 -50q13 -18 18.5 -45.5t6.5 -58t-2.5 -61.5t-8.5 -55z" />
    <glyph glyph-name="P" unicode="P" horiz-adv-x="430" 
d="M457 515q12 53 5.5 90t-28.5 60t-59.5 33.5t-87.5 10.5q-59 0 -116 -3q-5 -3 -11 -9t-8 -11l-142 -667q1 -5 4.5 -10.5t7.5 -8.5h30q6 2 13 7.5t11 11.5l61 285q14 -2 29 -3t30 -1q48 0 91 15.5t77.5 44t58.5 68t34 87.5zM397 538q-8 -39 -22.5 -72t-37.5 -57t-55 -37.5
t-75 -13.5h-30t-30 2l62 288q20 1 40 1h40q32 0 55.5 -4.5t38 -16.5t18 -33.5t-3.5 -56.5z" />
    <glyph glyph-name="Q" unicode="Q" 
d="M717 360q17 80 12 145t-35 110.5t-86 70.5t-140 25t-150.5 -25t-116 -70.5t-82.5 -110.5t-50 -145q-15 -71 -11.5 -134.5t28.5 -112.5t73.5 -80t123.5 -37q-14 -82 20.5 -130t119.5 -48q40 0 76 14t64.5 38.5t48.5 58t28 73.5q2 9 -3 14t-13 5h-29q-11 -4 -18 -11l-6 -8
q-5 -26 -16.5 -48t-29 -39t-40.5 -26.5t-50 -9.5q-53 0 -73.5 33t-11.5 84q76 6 137.5 38t107.5 81t76.5 112.5t45.5 132.5zM650 360q-13 -60 -40 -115.5t-67.5 -98t-94 -68t-120.5 -25.5q-66 0 -109.5 25.5t-66 68t-26.5 98t9 115.5q14 64 40 117.5t65.5 92.5t93 60.5
t122.5 21.5t115 -22t66 -50q13 -18 18.5 -45.5t6 -58t-3 -61.5t-8.5 -55z" />
    <glyph glyph-name="R" unicode="R" horiz-adv-x="509" 
d="M427 18q2 5 -2 13l2 -2q-9 33 -18.5 76.5t-21.5 87.5t-26.5 83t-34.5 64q55 26 95 75t52 105q11 51 4.5 87t-28.5 58.5t-58.5 33t-84.5 10.5q-69 0 -136 -3q-5 -3 -11 -9t-9 -11l-141 -667q1 -5 5.5 -11t9.5 -8h28q5 2 12 8t11 11l63 296h98q19 0 34 -18.5t27 -47.5
t21 -64.5t16 -69.5t12.5 -63t9.5 -44l12 -8h15q4 0 11.5 0.5t14 2t12 5t6.5 10.5zM414 514q-8 -37 -24.5 -62.5t-40 -41t-53 -22t-63.5 -6.5q-21 0 -42 0.5t-41 4.5l57 268q10 0 20 0.5t20 0.5h51q66 0 98 -37t18 -105z" />
    <glyph glyph-name="S" unicode="S" horiz-adv-x="483" 
d="M407 172q13 61 -3 99t-47 63.5t-69.5 43t-70.5 38.5t-50 49.5t-8 76.5q6 30 21.5 50.5t37 34t47 19.5t51.5 6q24 0 40 -2.5t29.5 -6.5t27.5 -9.5t34 -11.5l-2 1q6 -2 10 -2q8 0 13.5 6t7.5 13l7 31q-2 10 -9 17q-33 13 -71 18t-76 5q-40 0 -77.5 -10.5t-68.5 -31.5
t-53.5 -53.5t-31.5 -75.5q-10 -45 -2.5 -76.5t25.5 -54.5t43.5 -39.5t53 -31.5t53.5 -29.5t45 -33.5t27.5 -44.5t0.5 -61.5q-7 -31 -25 -53t-42 -36t-52 -20.5t-55 -6.5q-32 0 -61.5 6.5t-57.5 17.5q-9 4 -16 9.5t-18 5.5q-8 0 -14 -6t-8 -13l-8 -36q2 -11 8 -17
q38 -14 79.5 -20t84.5 -6q42 0 82.5 10t74.5 32t58.5 55.5t34.5 80.5z" />
    <glyph glyph-name="T" unicode="T" horiz-adv-x="556" 
d="M553 659l6 27q-1 6 -5.5 12t-9.5 8h-425q-7 -2 -14 -8t-9 -12l-3 -12q-2 -11 -1.5 -22.5t14.5 -11.5q28 0 56 2.5t55 2.5h69l-133 -626q1 -5 5.5 -11t9.5 -8h27q5 2 12 8t11 11l133 626h73q28 0 54.5 -1.5t53.5 -3.5l15 11z" />
    <glyph glyph-name="U" unicode="U" horiz-adv-x="624" 
d="M644 665l4 21q0 6 -4.5 12t-9.5 8h-27q-7 -2 -14.5 -8t-10.5 -12l-32 -152q-14 -69 -29.5 -139t-38.5 -139q-14 -42 -34.5 -78.5t-49.5 -64t-66 -43.5t-83 -16q-51 0 -82 14.5t-47.5 41t-19.5 64t2 83.5q12 107 35.5 214.5t46.5 214.5q0 6 -5 12t-10 8h-27q-7 -2 -14 -8
t-10 -12l-5 -27q-22 -102 -42 -203t-34 -203q-8 -62 -3 -110.5t27.5 -81.5t65 -50t109.5 -17q61 0 111 19t88.5 53.5t66 82t44.5 105.5q29 103 52.5 205.5t45.5 205.5z" />
    <glyph glyph-name="V" unicode="V" horiz-adv-x="675" 
d="M698 688q2 8 -2 13t-12 5h-32l-15 -8q-93 -149 -185 -297t-184 -297l-83 594l-12 8q-6 0 -12 0.5t-12 0.5q-9 0 -18 -3.5t-12 -15.5q-1 -4 2 -28t7.5 -57.5t10.5 -73t12 -75.5t10 -63.5t6 -37.5l50 -345l11 -8h31l15 8q9 15 32 51.5t54 86t68 108t74.5 118t72.5 115
t62 99.5t43.5 71.5t17.5 30.5z" />
    <glyph glyph-name="W" unicode="W" horiz-adv-x="933" 
d="M950 682q2 8 -1.5 16t-13.5 8h-28q-9 -4 -20 -13q-61 -141 -120 -281t-118 -281l-80 562l-11 8h-33l-15 -8q-80 -141 -159 -281t-159 -281l-3 562q-7 9 -14 13q-5 0 -10 0.5t-10 0.5q-11 0 -20.5 -4t-12.5 -18q-5 -24 -2.5 -48t2.5 -47q-1 -145 1 -288t3 -288
q3 -4 7.5 -8t9.5 -6h29q5 2 10.5 5.5t8.5 7.5q81 146 162 289t162 289l83 -583l12 -8h29q5 2 11 5.5t11 7.5q42 101 85.5 201t87.5 201q4 9 14 31t22.5 50.5t26 59.5t25 57.5t19.5 45.5t9 23z" />
    <glyph glyph-name="X" unicode="X" horiz-adv-x="626" 
d="M507 17q1 5 -8 30t-24 60.5t-33 77.5t-35 79.5t-29.5 67.5t-16.5 41q8 9 31 35t53 60t63 71t61 69t46 54t19 26q2 8 -2.5 13t-12.5 5h-36l-14 -7l-232 -268l-109 269l-10 6l-25 1q-9 0 -18.5 -3.5t-12.5 -15.5q-1 -2 7.5 -24t21 -54t27.5 -70t29 -72.5t24.5 -61
t14.5 -34.5q-9 -11 -35 -40t-60.5 -67t-72 -80t-69 -77.5t-52.5 -61t-22 -29.5q-2 -8 4 -12.5t13 -4.5h33l14 7q69 77 135.5 154t135.5 154l129 -309l11 -6h16q4 0 11 0.5t13 2t11 5t6 9.5z" />
    <glyph glyph-name="Y" unicode="Y" horiz-adv-x="511" 
d="M537 689q2 8 -3.5 12.5t-12.5 4.5h-28l-14 -8q-56 -81 -111 -162t-110 -163l-77 325l-11 8h-14q-8 0 -16 -1t-15 -5t-9 -11q-1 -4 5 -31t15 -66.5t20.5 -86t22 -89t18.5 -75t11 -43.5l-59 -279q1 -5 3.5 -8.5t4.5 -6.5l7 -4h28q6 2 13 8t10 11l60 281q7 11 29.5 43
t51.5 74.5t60.5 89t58 86t44 66.5t18.5 30z" />
    <glyph glyph-name="Z" unicode="Z" horiz-adv-x="584" 
d="M468 29q2 11 2.5 22.5t-13.5 11.5q-42 0 -85 -2t-85 -2h-219l529 602l5 25q0 6 -5 12t-11 8h-435q-6 -2 -13 -8t-10 -12q-1 -5 -2 -9t-3 -9q-2 -10 0.5 -18.5t14.5 -8.5q94 0 186 1t186 4l-529 -600l-6 -27q1 -5 3.5 -8.5t4.5 -6.5l7 -4h226q113 0 227 -3q5 2 11.5 6.5
t10.5 8.5z" />
    <glyph glyph-name="bracketleft" unicode="[" horiz-adv-x="228" 
d="M110 3l4 21q0 5 -4.5 11t-7.5 9q-15 2 -31.5 1t-31.5 1l136 639l65 4q5 3 11 9t9 11v3q3 11 3 24t-15 13h-58l-50 -1q-11 -4 -17 -11l-5 -8l-154 -725l1 -8l6 -8l8 -3h107q7 0 14.5 5t9.5 13z" />
    <glyph glyph-name="backslash" unicode="\" horiz-adv-x="400" 
d="M286 19q-26 171 -51 340t-54 339l-10 8h-21q-10 0 -21.5 -3t-14.5 -17q26 -171 51 -339.5t54 -338.5l10 -8h21q10 0 21.5 2.5t14.5 16.5z" />
    <glyph glyph-name="bracketright" unicode="]" horiz-adv-x="226" 
d="M108 -1l155 730q-1 6 -5.5 11.5t-9.5 7.5l-50 1h-57q-8 0 -15 -5.5t-9 -13.5l-5 -24q1 -8 10.5 -12t21.5 -5.5t24 -1.5h19l-136 -640l-65 -3q-5 -3 -10.5 -9t-8.5 -11l-5 -22q2 -6 6 -11.5t11 -5.5h107l8 3z" />
    <glyph glyph-name="asciicircum" unicode="^" horiz-adv-x="515" 
d="M452 553q1 3 -7.5 16t-22 31.5t-30.5 39.5t-32 40t-27 33.5t-16 20.5v-1q-2 2 -6.5 4t-6.5 2h-54l-214 -171q-1 -2 -4.5 -7.5t-4.5 -7.5q-2 -10 3 -14.5t14 -4.5h31q49 38 97 75.5t96 75.5l129 -151h11q4 0 11 0.5t14 2.5t12 5.5t7 10.5z" />
    <glyph glyph-name="underscore" unicode="_" horiz-adv-x="568" 
d="M596 -198l4 22l-2 8q-5 8 -14 11h-566q-11 -4 -18 -11l-6 -8l-4 -22q0 -6 5 -12t11 -8h566q6 2 13.5 8t10.5 12z" />
    <glyph glyph-name="grave" unicode="`" horiz-adv-x="272" 
d="M208 551q0 3 -4.5 19t-11.5 38.5t-16 49.5l-17 51t-14.5 43t-8.5 26l-11 7h-36q-8 0 -15.5 -5t-9.5 -14q0 -2 6 -17.5t15 -38.5t20.5 -50t21.5 -52t18 -43.5t10 -24.5l10 -7q4 0 7.5 -0.5t7.5 -0.5q9 0 17.5 4t10.5 15z" />
    <glyph glyph-name="a" unicode="a" horiz-adv-x="448" 
d="M357 19l68 321q9 43 4 71.5t-23 45t-47.5 23t-69.5 6.5q-19 0 -47.5 -6.5t-55 -15t-45.5 -15l-19 -6.5l-8 -12l-4 -15q-2 -10 -2 -24q0 -13 14 -13q3 0 19 7.5t38.5 17t48.5 17t50 7.5q48 0 71.5 -18t12.5 -70l-8 -40q-43 0 -95 -1.5t-100 -15.5t-85 -46t-50 -93
q-7 -33 -1.5 -61t21 -47.5t41 -30.5t58.5 -11q45 0 86.5 19t76.5 55l-9 -49q1 -5 3.5 -8.5t4.5 -6.5l7 -4h21q6 2 13 7.5t11 11.5zM346 251l-7 -10q-7 -35 -21 -68.5t-36.5 -60.5t-54 -43.5t-73.5 -16.5q-19 0 -32.5 8t-21.5 20.5t-10.5 29t1.5 34.5q6 27 20 45t33 29.5
t41.5 17.5t45.5 8q10 1 21.5 0.5t19.5 1.5q20 5 37.5 2.5t36.5 2.5z" />
    <glyph glyph-name="b" unicode="b" horiz-adv-x="501" 
d="M435 279q23 103 -15.5 155t-143.5 52q-41 0 -81.5 -13.5t-75.5 -42.5l66 309q-1 5 -5.5 11t-9.5 8h-26q-6 -2 -12 -8t-10 -11l-153 -722q-2 -6 1.5 -12.5t10.5 -6.5h15q6 0 14 2q28 -4 57 -5t58 -1q60 0 111.5 23.5t92 63t67.5 91t39 107.5zM372 279q-9 -42 -29 -83
t-50 -73t-69.5 -51.5t-86.5 -19.5q-25 0 -49.5 0.5t-47.5 2.5l55 259q6 26 24 47t42.5 36t52 23t50.5 8q74 0 98.5 -39t9.5 -110z" />
    <glyph glyph-name="c" unicode="c" horiz-adv-x="479" 
d="M394 63q2 10 1.5 19t-9.5 14q-5 0 -22 -7t-40.5 -15t-49.5 -15t-49 -7q-44 0 -70 17t-39 44.5t-13.5 63.5t7.5 74t24.5 70.5t40.5 56.5t56.5 38t73.5 14q19 0 37.5 -5t36 -11t32 -11t24.5 -5q8 0 14 5.5t8 13.5l7 33l-6 12q-31 14 -67 20t-73 6q-56 0 -101 -17t-79 -48.5
t-57 -75t-34 -96.5q-12 -55 -10 -102t20.5 -81.5t56.5 -54t99 -19.5q40 0 86 10t84 30l8 11z" />
    <glyph glyph-name="d" unicode="d" horiz-adv-x="507" 
d="M385 15l154 724q-1 5 -3.5 8.5t-4.5 6.5l-7 4h-25q-5 -2 -12 -8t-11 -11l-55 -258q-26 2 -53 3.5t-54 1.5q-127 0 -200 -63.5t-99 -188.5q-11 -52 -9 -96t20 -76t54 -50t92 -18q44 0 86.5 20t77.5 54l-10 -49q1 -5 3.5 -8.5t4.5 -6.5l7 -4h22q5 2 11.5 6.5t10.5 8.5z
M408 419q-6 -27 -12 -65t-16 -78.5t-24.5 -80.5t-37.5 -72t-55.5 -51.5t-77.5 -19.5q-41 0 -65.5 15t-36.5 40t-12.5 58t7.5 69q20 93 73.5 143.5t150.5 50.5q27 0 54 -1.5t52 -7.5z" />
    <glyph glyph-name="e" unicode="e" horiz-adv-x="492" 
d="M450 255q10 46 10 88t-14.5 74.5t-45.5 51.5t-84 19t-97.5 -17t-78.5 -47.5t-57 -73.5t-34 -94q-12 -57 -11.5 -105t18.5 -83t56.5 -54.5t101.5 -19.5q38 0 83 10t82 30l9 11l3 15q2 10 2.5 23t-13.5 13q-3 0 -19 -7t-38.5 -15t-48 -15t-48.5 -7q-41 0 -67 13.5
t-39.5 37.5t-16 56t3.5 69q81 0 161.5 2.5t162.5 5.5q5 4 10.5 9t8.5 10zM394 294q-62 -5 -122.5 -6t-121.5 -1h-31q9 32 27 58.5t42.5 45t54 29t61.5 10.5q29 0 48 -11.5t29.5 -30.5t13 -43.5t-0.5 -50.5z" />
    <glyph glyph-name="f" unicode="f" horiz-adv-x="404" 
d="M460 669l8 35l-6 12q-19 11 -43 15t-47 4q-48 0 -80.5 -15t-54 -41t-34.5 -61.5t-22 -75.5q-4 -19 -6.5 -37.5t-7.5 -37.5h-48q-6 -2 -13 -7.5t-11 -11.5l-4 -22l3 -9l9 -10h51l-82 -388q4 -13 15 -19h25q6 2 13 8t10 11l82 388h151l9 4q4 3 8 6.5t7 8.5l4 22
q0 5 -4 10.5t-8 8.5h-155l22 101q9 45 34 77t76 32q18 0 35.5 -5t28.5 -16l10 -3q8 2 14 5t11 11z" />
    <glyph glyph-name="g" unicode="g" horiz-adv-x="456" 
d="M388 19l93 436q-1 5 -5 11t-7 9q-27 6 -55.5 8.5t-57.5 2.5q-53 0 -100 -18.5t-85.5 -51t-65 -77t-37.5 -96.5q-9 -42 -9 -80t13.5 -66.5t42.5 -45t77 -16.5q41 0 80.5 19.5t70.5 50.5l-20 -95q-6 -30 -21 -60.5t-36.5 -54.5t-50 -39.5t-62.5 -15.5q-32 0 -57.5 9
t-45.5 29q-1 1 -7 5q-8 0 -16.5 -5t-10.5 -14l-8 -38q0 -13 17 -21.5t38.5 -14t43.5 -7.5t33 -2q50 0 91.5 20t73 53.5t52.5 76.5t31 88zM411 420q-6 -26 -12 -60t-16 -70.5t-24 -71.5t-35 -63t-50.5 -45t-68.5 -17q-32 0 -49.5 13.5t-25 35.5t-6.5 48.5t7 52.5
q8 38 27.5 72t47.5 59t63.5 39.5t74.5 14.5q32 0 67 -8z" />
    <glyph glyph-name="h" unicode="h" horiz-adv-x="491" 
d="M369 19l63 295q10 46 3 78.5t-28 53.5t-54 30.5t-76 9.5q-40 0 -81.5 -13.5t-75.5 -42.5l66 309q-2 6 -6.5 11.5t-9.5 7.5h-25l-9 -4q-4 -3 -8 -6.5t-6 -8.5l-154 -720q1 -5 3.5 -8.5t4.5 -6.5l7 -4h25q7 2 14 7.5t10 11.5l64 297q5 26 23.5 46.5t43 35t51.5 22.5t50 8
q27 0 49 -7t36.5 -21t19.5 -35.5t-1 -50.5l-63 -295q2 -6 6.5 -11.5t9.5 -7.5h25l9 4q4 3 8 6.5t6 8.5z" />
    <glyph glyph-name="i" unicode="i" horiz-adv-x="155" 
d="M173 587l8 38q-1 6 -6 11.5t-10 7.5h-38l-9 -4q-4 -3 -8 -6.5t-6 -8.5l-8 -38l2 -8l7 -7l7 -3h38l9 3q7 4 14 15zM44 15l95 447q-2 10 -8 16l-7 3h-26l-7 -3q-5 -3 -9.5 -7t-6.5 -9l-94 -443l3 -9l10 -10h29q5 2 11 6.5t10 8.5z" />
    <glyph glyph-name="j" unicode="j" horiz-adv-x="334" 
d="M372 587l8 38q-2 6 -6.5 11.5t-9.5 7.5h-37l-9 -4q-4 -3 -8 -6.5t-6 -8.5l-8 -38q0 -10 7 -15l8 -3h37q9 1 18 9zM248 38l90 424q-2 11 -8 16l-6 3h-26l-8 -3q-4 -3 -8.5 -7t-6.5 -9q-11 -54 -22 -106t-22 -106l-45 -212q-5 -25 -13.5 -59t-24 -65t-39 -52.5t-59.5 -21.5
q-14 0 -28.5 5t-22.5 16l-9 5q-9 0 -16.5 -5.5t-9.5 -14.5l-6 -31l4 -12q15 -11 35 -16.5t40 -5.5q55 0 91.5 24.5t60 62t37 83t22.5 87.5z" />
    <glyph glyph-name="k" unicode="k" horiz-adv-x="448" 
d="M327 19q1 3 -12.5 22t-35 45.5t-47 57.5t-49 58.5t-41.5 48.5l-24 28l259 179l7 9q2 9 -2.5 15.5t-13.5 6.5h-38q-59 -42 -117.5 -83.5t-117.5 -83.5l89 418q-4 13 -15 19h-24q-7 -2 -14 -7.5t-10 -11.5l-154 -721l3 -9l10 -10h28q6 2 13 8t10 11l45 209l188 -228h39
q7 0 14.5 6t9.5 13z" />
    <glyph glyph-name="l" unicode="l" horiz-adv-x="328" 
d="M268 28q1 5 3 13.5t2 16.5t-2.5 14t-9.5 6t-13.5 -4t-15 -9t-20 -9t-26.5 -4q-36 0 -50.5 21.5t-16.5 52.5t4 65t11 59l105 489q-1 5 -5.5 11t-9.5 8h-25l-9 -4q-4 -3 -8 -6.5t-6 -8.5l-104 -489q-9 -42 -15 -87.5t1.5 -83t34 -61.5t81.5 -24q20 0 42 5t42 16z" />
    <glyph glyph-name="m" unicode="m" horiz-adv-x="754" 
d="M657 19l63 295q17 81 -15.5 126.5t-114.5 45.5q-45 0 -89.5 -21.5t-76.5 -58.5q-15 37 -50 58.5t-79 21.5q-38 0 -75.5 -14.5t-69.5 -43.5l6 38l-8 12l-7 3h-21l-9 -3q-11 -7 -15 -16l-95 -443q2 -6 6.5 -11.5t9.5 -7.5h25q6 2 13 8t10 11l63 294q5 24 21 45t38 36.5
t47 24.5t48 9q53 0 71 -32.5t7 -81.5l-63 -295q4 -13 15 -19h26q6 2 13 8t10 11l63 295q5 24 21 44.5t38 36t47 24.5t47 9q54 0 72 -31.5t7 -82.5l-63 -295q4 -13 15 -19h25q7 2 14 7.5t10 11.5z" />
    <glyph glyph-name="n" unicode="n" horiz-adv-x="491" 
d="M398 19l63 295q10 45 3 77.5t-28 53.5t-54.5 31t-75.5 10t-83.5 -14.5t-76.5 -46.5l6 41l-9 12l-7 3h-21l-9 -3q-9 -6 -14 -16l-95 -443q1 -5 3.5 -8.5t4.5 -6.5l7 -4h25q7 2 14 7.5t10 11.5l65 304q5 23 24.5 42t44.5 33t51.5 22t46.5 8q54 0 85 -28t19 -86l-63 -295
q2 -6 6.5 -11.5t9.5 -7.5h25l9 4q4 3 8 6.5t6 8.5z" />
    <glyph glyph-name="o" unicode="o" horiz-adv-x="543" 
d="M497 243q12 57 9 102t-23 77t-59 49t-99 17q-59 0 -105.5 -17t-81 -49t-57.5 -77t-35 -102q-11 -54 -6.5 -99.5t25.5 -79t59.5 -52t95.5 -18.5t103 19t81 52t58.5 78.5t34.5 99.5zM436 253q-9 -40 -25 -76.5t-40.5 -64t-59 -44t-79.5 -16.5q-42 0 -69.5 15.5t-42 41.5
t-17 61t5.5 73q9 40 25.5 74.5t41.5 59.5t59 39t78 14q45 0 73 -12.5t42 -35.5t15.5 -55.5t-7.5 -73.5z" />
    <glyph glyph-name="p" unicode="p" horiz-adv-x="494" 
d="M478 270q22 101 -15.5 159.5t-142.5 58.5q-38 0 -77 -15t-71 -42l6 31q0 5 -2.5 9t-5.5 7l-8 3h-25l-7 -3q-8 -5 -15 -16l-142 -668q2 -14 14 -19h25q9 3 19 11l5 8l45 210q23 -5 46 -7.5t47 -2.5q57 0 107.5 23t90.5 61.5t67.5 88t38.5 103.5zM415 270q-9 -41 -29 -80
t-49.5 -70t-67.5 -49.5t-83 -18.5q-24 0 -47 2.5t-44 9.5l45 211q6 30 20.5 58t36 49.5t49.5 34.5t61 13q38 0 62.5 -12t37 -33t14 -50.5t-5.5 -64.5z" />
    <glyph glyph-name="q" unicode="q" horiz-adv-x="498" 
d="M380 -211l144 674q2 7 -2.5 12t-9.5 7q-10 3 -29.5 4t-41.5 1t-42.5 -0.5t-32.5 -0.5q-119 0 -196.5 -66.5t-102.5 -184.5q-11 -50 -11.5 -94t14.5 -76.5t48 -51.5t90 -19q46 0 90 19t79 55l-59 -274l3 -8q2 -3 5 -6t7 -5h26q6 2 11 6zM465 435q-9 -3 -15 -33
l-14.5 -72.5t-22 -91t-37.5 -90t-61.5 -69t-93.5 -27.5q-39 0 -61 16.5t-31 42.5t-7.5 58.5t8.5 65.5q16 75 50 116t79 60t98 22t108 2z" />
    <glyph glyph-name="r" unicode="r" horiz-adv-x="330" 
d="M363 435l7 29q-2 11 -11 18q-8 2 -17 2.5t-18 0.5q-38 0 -75 -13t-69 -41l6 31q-2 10 -8 16l-7 3h-25l-8 -3q-11 -7 -15 -16l-94 -443q1 -6 5.5 -11.5t10.5 -7.5h25q6 2 13 8t10 11l61 289q5 24 19.5 45t34 36.5t43 24t47.5 8.5q10 0 19.5 -0.5t17.5 -3.5l10 1l11 6z" />
    <glyph glyph-name="s" unicode="s" horiz-adv-x="391" 
d="M323 122q9 42 -3 69.5t-35 46t-51.5 31t-52.5 26t-38 31t-8 45.5q4 18 14.5 29t24 18t29.5 9.5t30 2.5q16 0 31 -4t29 -8.5t28.5 -8t29.5 -3.5q7 0 12.5 6.5t7.5 12.5l6 28q-1 5 -3 9l-4 8q-60 18 -124 18q-28 0 -56 -6.5t-52 -20.5t-41.5 -36t-24.5 -54q-9 -42 3 -69.5
t35 -46t51.5 -31t52 -26t38 -30.5t8.5 -44q-4 -20 -16.5 -34t-29 -22.5t-35.5 -12t-36 -3.5q-20 0 -37.5 5t-32 11t-25.5 11t-18 5q-8 0 -15 -5.5t-9 -13.5l-8 -35l6 -12q27 -12 59.5 -18t64.5 -6q30 0 61.5 7t58.5 22t47 39.5t28 59.5z" />
    <glyph glyph-name="t" unicode="t" horiz-adv-x="412" 
d="M306 59q2 9 1 18t-13 9q-4 0 -15.5 -5.5t-27 -11.5t-33 -11.5t-33.5 -5.5q-20 0 -31 9t-15.5 23.5t-3.5 31.5t4 34l55 257h153q6 2 13 8t10 11l5 22q-1 5 -4.5 10.5t-7.5 8.5h-156l26 125l-3 9l-10 10h-23q-5 -2 -11.5 -6.5t-10.5 -8.5q-8 -32 -15 -64.5t-15 -64.5h-56
q-10 -3 -19 -12l-4 -7l-5 -22l2 -9l10 -10h59l-55 -257q-7 -35 -7.5 -63.5t9.5 -49t32.5 -32t61.5 -11.5q28 0 60.5 7.5t59.5 22.5l8 11z" />
    <glyph glyph-name="u" unicode="u" horiz-adv-x="483" 
d="M392 19l94 443q-2 10 -8 16l-7 3h-25l-9 -3q-9 -6 -14 -16l-27 -128q-8 -32 -15 -64.5t-14 -64.5q-7 -31 -25 -59t-43 -49t-55.5 -33t-61.5 -12q-32 0 -51 12t-28 32t-9.5 46t5.5 53q14 68 29 135t30 135q2 6 -1 11t-10 5h-28l-9 -3l-13 -12q-17 -68 -32 -135.5
t-29 -135.5q-9 -43 -7 -80t18 -64t45.5 -42t76.5 -15q46 0 91 19t80 56l-9 -50q1 -6 5.5 -11.5t10.5 -7.5h22l8 4q4 3 8 6.5t7 8.5z" />
    <glyph glyph-name="v" unicode="v" horiz-adv-x="474" 
d="M476 464q2 8 -2.5 12.5t-12.5 4.5h-28l-14 -7q-52 -90 -103.5 -178.5t-104.5 -178.5l-52 357l-12 7l-25 1q-9 0 -18 -3.5t-12 -14.5q-1 -4 3.5 -35.5t11.5 -78t15.5 -101t16.5 -104t14.5 -87.5t8.5 -50l12 -8h21l13 8q6 9 28 45.5t51.5 86.5t62.5 106t61 103.5t46.5 80
t18.5 34.5z" />
    <glyph glyph-name="w" unicode="w" horiz-adv-x="719" 
d="M718 465q1 6 -5 11t-11 5h-21q-5 -1 -12 -5.5t-11 -7.5q-45 -89 -88 -177.5t-89 -177.5l-58 361l-12 7h-23l-14 -7q-51 -89 -100.5 -176.5t-100.5 -176.5l-10 347l-9 10l-7 3q-4 0 -7.5 0.5t-7.5 0.5q-11 0 -24 -5t-12 -20l13 -443q2 -4 6 -8t9 -6h32l15 8
q52 91 102.5 180.5t101.5 180.5l59 -361l12 -8h27q5 2 11.5 6t11.5 8q8 17 27 55t43 85t50 98.5t48 96t37 76t17 40.5z" />
    <glyph glyph-name="x" unicode="x" horiz-adv-x="510" 
d="M418 18q-32 58 -62 116.5t-63 115.5l22 22t39 40t47 49t45.5 48t34.5 37t14 17q2 8 -2.5 13t-12.5 5h-34l-12 -6q-41 -46 -83.5 -90.5t-85.5 -88.5q-23 45 -47 90t-47 90l-10 5h-25q-10 0 -18.5 -3.5t-13.5 -13.5q27 -54 58.5 -106t56.5 -107q-5 -4 -23 -22.5t-42.5 -44
t-52 -54t-50 -53t-38 -41.5t-15.5 -18q-2 -8 3 -13t13 -5h33l13 6q48 49 92.5 99.5t92.5 99.5q28 -49 54.5 -98t50.5 -100l11 -7h26q10 0 18 3.5t13 14.5z" />
    <glyph glyph-name="y" unicode="y" horiz-adv-x="546" 
d="M561 465q2 8 -3.5 12t-12.5 4h-33l-14 -7q-61 -95 -122.5 -190t-125.5 -189l-78 379l-12 7l-24 1q-9 0 -18 -3.5t-12 -14.5q-1 -3 5 -33.5t15 -76t20 -99t21 -102t18 -85.5t11 -49q-7 -12 -27.5 -41t-43 -61t-40.5 -59t-19 -34q-2 -8 4 -12t13 -4h32l13 6q10 16 34 51.5
t56 82.5t69.5 103t75.5 112t73 108.5t62.5 94t44.5 68.5t18 31z" />
    <glyph glyph-name="z" unicode="z" horiz-adv-x="484" 
d="M392 19l4 21q0 5 -2.5 8.5t-4.5 6.5l-8 4h-284l379 381l5 22l-1 8l-7 8l-7 3h-338l-9 -3q-4 -3 -8.5 -7t-6.5 -9l-4 -20q2 -10 8 -16l8 -3h268l-381 -382l-5 -22q1 -5 3.5 -8.5t4.5 -6.5l7 -4h356l9 4q4 3 8 6.5t6 8.5z" />
    <glyph glyph-name="braceleft" unicode="{" horiz-adv-x="243" 
d="M123 -3l5 23q-2 10 -8 16l-7 4q-18 0 -25 6.5t-2 24.5q10 48 22.5 94t22.5 93q2 11 5.5 26.5t5 31.5t-0.5 29.5t-10 20.5q9 7 17 16t10 20l64 290q1 5 14 5.5t17 0.5l9 4q4 3 8 6.5t6 8.5l5 24q-1 5 -3.5 8.5t-4.5 6.5l-7 4h-26q-27 0 -44.5 -12t-28 -31t-16.5 -41
t-10 -42q-8 -42 -14.5 -83t-15.5 -83q-2 -10 -4.5 -23.5t-7 -25.5t-12.5 -20t-22 -8l-9 -4q-8 -5 -15 -16l-3 -14q2 -10 8 -16l7 -4q19 0 22 -11.5t0 -27.5q-10 -45 -22 -88.5t-22 -88.5q-4 -20 -8.5 -44.5t-2.5 -46.5t13.5 -36.5t40.5 -14.5h26q4 2 8.5 4t8.5 5z" />
    <glyph glyph-name="bar" unicode="|" horiz-adv-x="145" 
d="M11 -158l190 897l-3 9l-10 10h-31q-5 -2 -12 -8t-11 -11l-190 -897l3 -9l10 -10h31q5 2 12 8t11 11z" />
    <glyph glyph-name="braceright" unicode="}" horiz-adv-x="247" 
d="M203 357l3 14l-3 10l-8 10q-6 0 -17 2t-10 10q9 72 24.5 146t29.5 146q6 29 -9 47t-44 18h-26l-9 -4q-4 -3 -8 -6.5t-6 -8.5l-5 -24q0 -5 4 -10.5t8 -8.5q18 0 24.5 -4t7 -12.5t-3.5 -20t-7 -26.5q-3 -14 -8.5 -37t-12 -49.5t-12.5 -55t-8.5 -54t-0.5 -45.5t10 -29
q-11 -9 -19 -22t-13.5 -27t-9 -28.5t-6.5 -25.5q-4 -18 -9 -48.5t-11.5 -63t-13.5 -61.5t-15 -43q-3 -6 -14 -6h-15l-9 -4q-9 -6 -14 -16l-5 -23l3 -10l9 -8h30q28 0 46 15t28.5 37.5t16.5 47.5t10 45q4 19 9 47t11 57.5t12.5 56t14.5 43.5q3 7 13 8t15 1l9 4q9 6 14 16z
" />
    <glyph glyph-name="asciitilde" unicode="~" horiz-adv-x="526" 
d="M485 650l-10 24l-10 7q-7 0 -13 -4t-11 -9v1q-17 -14 -36.5 -23.5t-39.5 -9.5q-26 0 -48.5 7t-44 16t-44.5 16t-48 7q-9 0 -31 -6.5t-45 -16.5t-41.5 -22t-20.5 -22q-1 -3 1.5 -8.5t6 -11t7.5 -10.5t6 -8q6 0 17 7.5t24.5 16t30 16t33.5 7.5q25 0 47.5 -7t44.5 -15.5
t44.5 -15.5t48.5 -7q31 0 66.5 15.5t61.5 37.5z" />
    <glyph glyph-name="exclamdown" unicode="&#xa1;" horiz-adv-x="148" 
d="M173 653l8 39q-2 10 -7 15l-7 4h-34l-9 -4l-7 -7t-6 -8l-7 -35q1 -6 7 -14l7 -4h34q5 2 11 6t10 8zM33 14l123 578q-4 13 -15 19h-28l-9 -4q-4 -3 -8 -6.5t-6 -8.5l-123 -578q2 -11 8 -16l7 -4h28q6 2 13 8t10 12z" />
    <glyph glyph-name="cent" unicode="&#xa2;" horiz-adv-x="479" 
d="M396 63q2 10 1.5 19t-9.5 14q-11 0 -17 -5l1 2q-27 -17 -57.5 -26.5t-60.5 -13.5l80 376q8 -2 23.5 -7t31.5 -10t29.5 -9.5t17.5 -4.5q8 0 14 5.5t8 13.5l7 33l-5 12q-26 11 -54.5 17.5t-59.5 8.5l7 34q0 9 -7 16l-8 3h-28l-8 -3q-8 -5 -15 -16l-7 -36q-47 -8 -85.5 -29
t-68 -52t-49 -70.5t-28.5 -83.5q-10 -46 -9.5 -89t14.5 -77.5t43.5 -58t78.5 -30.5l-11 -52q0 -9 7 -16l8 -3h28l8 3q8 5 15 16l10 50q35 2 72.5 12.5t71.5 27.5l7 11zM188 56q-33 7 -51.5 26.5t-26 47t-6.5 59t8 62.5q6 31 18 60t30.5 53t44.5 40.5t62 21.5z" />
    <glyph glyph-name="sterling" unicode="&#xa3;" horiz-adv-x="476" 
d="M361 31q2 11 1.5 22.5t-14.5 11.5q-36 0 -73 -2t-73 -2h-137q47 60 80.5 128t48.5 137l2 9l152 -3l9 3l9 8l5 8l6 26l-2 10l-10 9h-165q1 21 -1.5 40.5t-5 39.5t-3 40t4.5 42q6 26 20 44t33 28.5t41.5 15t45.5 4.5q16 0 31.5 -4t30 -9t29 -9t29.5 -4q7 0 13.5 6t8.5 13
l6 28q-1 5 -4 10t-6 8q-61 22 -126 22q-37 0 -72.5 -8.5t-65 -27t-50.5 -47.5t-30 -70q-9 -43 -3 -82.5t8 -79.5h-47l-9 -3q-11 -7 -15 -16l-6 -24l3 -10l10 -9q15 0 30.5 0.5t30.5 0.5q-8 -37 -20.5 -75.5t-30.5 -75t-42.5 -70.5t-57.5 -62l-7 -33l3 -9l9 -10h350
q10 3 19 12l4 7z" />
    <glyph glyph-name="yen" unicode="&#xa5;" horiz-adv-x="503" 
d="M529 689q2 7 -2.5 12t-11.5 5h-29l-15 -8q-54 -81 -107.5 -160.5t-108.5 -159.5l-74 320l-11 8h-14q-8 0 -16 -1t-15 -5t-9 -11q-1 -4 4 -27.5t13 -58t18 -75t19 -76.5l16 -64t10 -37h-93l-9 -4q-4 -4 -7 -7.5t-6 -7.5l-5 -22q2 -4 3.5 -7.5t3.5 -7.5l7 -4h111l-21 -97
h-111l-9 -4l-7 -7t-6 -8l-4 -21q0 -5 2 -8.5t4 -7.5l7 -4h111l-24 -115q1 -5 3.5 -8.5t4.5 -6.5l7 -4h28q6 2 13 8t10 11l24 115h107q7 2 14.5 8t10.5 12l4 21l-2 8q-5 8 -14 11h-107l21 97h107q6 2 13 7.5t11 11.5l5 22q-2 6 -6.5 11.5t-9.5 7.5h-86q6 9 25 36.5t44 64.5
t53 77t51.5 75t39 58.5t15.5 26.5z" />
    <glyph glyph-name="brokenbar" unicode="&#xa6;" horiz-adv-x="505" 
d="M515 483q6 29 -10 49.5t-45 20.5t-53.5 -20.5t-30.5 -49.5t9.5 -49t44.5 -20t54 20t31 49zM254 483q6 29 -10 49.5t-45 20.5t-53.5 -20.5t-30.5 -49.5t9.5 -49t44.5 -20t54 20t31 49zM341 -111l-3 8q-4 5 -13 9h-22q-10 -4 -16 -9l-4 -8q-8 -38 -36 -65.5t-68 -27.5
q-42 0 -56.5 27.5t-6.5 65.5l-3 8l-1 1q41 6 71 26.5t51.5 50t34.5 64.5t21 70l123 576l-3 10l-10 10h-149q-6 -2 -13.5 -8t-10.5 -12l-5 -22l3 -9l10 -10l105 -1l-115 -539q-5 -26 -15 -52.5t-25.5 -47.5t-38.5 -34.5t-55 -13.5q-13 0 -24 4.5t-20.5 10.5t-17.5 10.5
t-15 4.5q-9 0 -15.5 -6.5t-8.5 -15.5q-2 -8 -2 -18v-18l5 -11q31 -18 70 -20l-4 -8q-13 -66 13.5 -105.5t95.5 -39.5q66 0 111 41t62 104zM461 443h-4q-8 0 -11 5t-2 11.5t6.5 11.5t13.5 5h4q8 0 11 -5.5t2 -11.5t-6.5 -11.5t-13.5 -5.5v1zM209 459q-2 -8 -8 -12.5t-12 -4.5
t-10.5 4.5t-2.5 12.5l1 4q1 8 7.5 12t12.5 4t10.5 -4t3.5 -12z" />
    <glyph glyph-name="section" unicode="&#xa7;" horiz-adv-x="244" 
d="M204 357q6 28 4.5 55t-4 53.5t-4 53.5t4.5 55q5 23 20.5 46.5t36.5 38.5l7 11q3 13 -2.5 19t-13.5 12l1 -2l-11 6q-5 -1 -10 -2.5t-9 -3.5q-27 -23 -48 -58t-28 -67q-5 -23 -5.5 -45.5t1.5 -44.5l-6 3q-9 0 -19 -5q-27 -24 -47.5 -58t-27.5 -66q-6 -29 -5.5 -57.5
t4.5 -56.5l-1 1q3 -26 4 -52.5t-4 -53.5q-4 -16 -11.5 -28.5t-17 -24t-20 -23t-19.5 -25.5q0 -4 3 -10t7.5 -12t9.5 -10.5t9 -4.5q10 0 26 18t31 41.5t26.5 46.5t13.5 32q4 20 4.5 40t1.5 40q12 0 28 17.5t31 41t26 46t13 33.5zM146 357q-4 -17 -17.5 -40.5t-29.5 -34.5
q-2 19 -2 37q0 19 4 39q5 20 17.5 40.5t29.5 35.5q2 -19 2 -38t-4 -39z" />
    <glyph glyph-name="dieresis" unicode="&#xa8;" horiz-adv-x="331" 
d="M283 563l10 47q0 9 -7 16l-7 3h-42l-9 -3l-10 -8l-5 -8l-8 -42l1 -8q5 -9 13 -12h42q5 2 11.5 6.5t10.5 8.5zM118 568l9 43l-2 8l-6 8l-7 3h-42l-9 -3q-9 -6 -14 -16l-9 -43q0 -9 7 -16l7 -4h42q10 3 19 12z" />
    <glyph glyph-name="copyright" unicode="&#xa9;" horiz-adv-x="799" 
d="M749 352q15 73 2.5 138.5t-48.5 114.5t-93.5 77.5t-131.5 28.5q-75 0 -145 -28.5t-128 -77t-98.5 -114t-56.5 -139.5t-2.5 -139t50.5 -114t95 -77t133 -28t144.5 28.5t126 77.5t96.5 114t56 138zM683 352q-12 -58 -45 -111t-79.5 -93t-103 -64t-115.5 -24t-106 23.5
t-77.5 64t-41.5 93t1 111.5q12 58 46 111.5t81 93.5t104.5 64t116.5 24q60 0 106 -24t75.5 -64.5t39.5 -93.5t-2 -111zM520 195q1 5 2 12.5t0.5 14t-3.5 11.5t-10 5q-3 0 -15.5 -6.5t-31.5 -14t-40.5 -13.5t-42.5 -6q-33 0 -53.5 13t-31.5 34t-12.5 48.5t4.5 56.5
q7 33 19 60.5t30.5 47.5t45 31t62.5 11q15 0 28.5 -4t26.5 -9t25.5 -9t26.5 -4q8 0 14 6t8 14l7 33q0 5 -2.5 9.5t-5.5 8.5q-23 12 -54 16.5t-60 4.5q-54 0 -94.5 -14.5t-69.5 -42.5t-48 -68t-30 -91q-10 -47 -6.5 -87t21.5 -69t51.5 -45.5t83.5 -16.5q33 0 70 8t71 23
l10 14z" />
    <glyph glyph-name="ordfeminine" unicode="&#xaa;" horiz-adv-x="283" 
d="M212 409l4 17l-3 10l-10 10h-80q25 5 44 18l3 -8l10 -9h18q10 3 18 11l6 8l34 161q11 49 -10 66t-66 17q-21 0 -45.5 -6t-44.5 -19l-9 -12l-2 -12q-2 -10 -2 -20t13 -10q2 0 9 3t9 4l-1 -1q15 8 31.5 13.5t31.5 5.5q17 0 26.5 -4.5t4.5 -24.5l-2 -10q-24 0 -50 -2
t-48.5 -11t-40 -26.5t-23.5 -48.5q-7 -30 4.5 -54t41.5 -29h-39q-7 -2 -14.5 -8t-9.5 -12l-4 -17l3 -10l10 -9h159q10 3 18 11zM189 579q-3 -15 -8.5 -29.5t-14.5 -26t-22 -19t-31 -7.5q-13 0 -18 10t-2 22t11 19.5t18.5 11.5t22.5 5t21 1z" />
    <glyph glyph-name="guillemotleft" unicode="&#xab;" horiz-adv-x="443" 
d="M432 514l-2 29q-2 4 -6.5 8t-9.5 6q-4 0 -19.5 -11.5t-37.5 -29t-47.5 -38.5t-49 -40t-41.5 -34t-26 -21q-2 -3 -4.5 -6.5t-4.5 -6.5l-2 -19q10 -13 30 -40.5t42.5 -56.5t43.5 -53t33 -30q7 0 13 4.5t10.5 11t8 13.5t4.5 13t-14.5 27.5t-36 47t-40 48t-25.5 29.5l172 136
zM291 512q1 6 1.5 13.5t-1 14.5t-5.5 12t-11 5q-4 0 -20 -11.5t-37.5 -29t-47 -38.5t-48.5 -40t-41.5 -34t-25.5 -20q-3 -3 -5.5 -6.5t-4.5 -7.5l-2 -19q4 -5 16 -20.5t27.5 -35.5t33 -41.5t32.5 -39.5t25.5 -30t13.5 -12q12 0 19.5 10t12.5 20l-6 22l10 -6l-2 9
q-29 35 -57 69t-56 69l172 136z" />
    <glyph glyph-name="logicalnot" unicode="&#xac;" horiz-adv-x="441" 
d="M386 304l22 103l-2 8q-2 3 -5 6t-8 4h-315q-5 -1 -9 -4l-8 -6l-6 -8l-5 -22q1 -6 5.5 -12t9.5 -8h270l-13 -61q1 -6 5.5 -12t9.5 -8h26q7 2 14 8t9 12z" />
    <glyph glyph-name="registered" unicode="&#xae;" horiz-adv-x="816" 
d="M766 354q16 74 1 139t-53.5 113.5t-98 76.5t-132.5 28q-74 0 -144.5 -28t-129.5 -77t-101 -114t-58 -138q-15 -74 -1 -139t52 -114.5t97 -78t133 -28.5t145.5 28.5t130.5 77.5t101 114.5t58 139.5zM700 354q-12 -59 -47 -112t-84 -93.5t-107 -64.5t-117 -24t-106.5 24
t-79 64.5t-43.5 93.5t0 112q12 58 47 111t83.5 93.5t106 64t116.5 23.5q58 0 106.5 -23.5t80 -64t44 -93.5t0.5 -111zM532 137q0 1 -3.5 12.5t-8 25.5t-8.5 27.5t-5 18.5v-1q-5 28 -15 63.5t-24 57.5q32 17 56.5 47.5t31.5 64.5q15 70 -15.5 102.5t-98.5 32.5q-9 0 -26 -0.5
t-35 -3t-33 -8t-21 -14.5l-91 -424q2 -6 7 -12t10 -8h29q6 2 12 6.5t11 9.5l38 179h54q8 0 16.5 -25t16 -57t13.5 -61.5t8 -39.5q6 -7 14 -12h42q6 0 14.5 6t10.5 13zM486 453q-6 -31 -30 -51.5t-55 -20.5h-44l29 138q11 2 21 2h21q33 0 49.5 -16.5t8.5 -51.5z" />
    <glyph glyph-name="macron" unicode="&#xaf;" horiz-adv-x="437" 
d="M391 556l4 23l-2 8q-2 3 -5 6t-8 5h-311q-5 -2 -9 -5l-8 -6l-6 -8l-4 -23q0 -8 8 -16l7 -3h311l7 3q10 6 16 16z" />
    <glyph glyph-name="degree" unicode="&#xb0;" horiz-adv-x="257" 
d="M216 575q8 37 -12 62t-57 25t-67.5 -25t-38.5 -62q-8 -38 11.5 -63t57.5 -25q18 0 35.5 7t32 19t24.5 28t14 34zM160 575q-3 -14 -14 -24t-25 -10t-21 10t-4 24t14.5 24t25.5 10t20.5 -10.5t3.5 -23.5z" />
    <glyph glyph-name="plusminus" unicode="&#xb1;" horiz-adv-x="417" 
d="M370 384l5 23l-2 8l-7 7l-7 3h-112l25 113q-1 6 -5.5 11t-9.5 7h-23q-7 -2 -13 -7t-10 -11l-23 -113h-113l-9 -3q-8 -6 -13 -15l-5 -23q1 -5 3 -8.5t4 -7.5l7 -3h113l-25 -112q1 -5 3.5 -8.5t4.5 -6.5l7 -4h23q6 2 13 8t10 11l23 112h112l9 3q10 7 15 16zM335 187l6 27
q-2 4 -3.5 7.5t-3.5 7.5l-7 4h-284q-6 -2 -13 -7.5t-11 -11.5l-5 -23q2 -6 6.5 -11.5t9.5 -7.5h284l9 4z" />
    <glyph glyph-name="threesuperior" unicode="&#xb3;" horiz-adv-x="498" 
d="M507 483q6 29 -10 49.5t-45 20.5t-53.5 -20.5t-30.5 -49.5t9.5 -49t44.5 -20t54 20t31 49zM246 483q6 29 -10 49.5t-45 20.5t-53.5 -20.5t-30.5 -49.5t9.5 -49t44.5 -20t54 20t31 49zM398 16l25 116q-2 11 -8 16l-7 4h-22l-11 -5l-12 -12l-16 -73q-62 -3 -124 -3h-143
q8 17 28.5 52t48.5 80.5t60.5 98.5t65 106.5t63.5 104t55 90t39 66t16 31.5q2 8 -2.5 13t-12.5 5h-30l-14 -8l-391 -652l-6 -27q4 -13 15 -19q181 3 363 0l9 4zM203 -183q2 10 -7 16.5t-17 8.5q-10 0 -22 -7q-13 -16 -32 -16q-12 0 -15.5 10t-1.5 21q3 12 11.5 23.5
t19.5 23.5t21.5 23t17.5 22q2 8 -3 10l-10 4q-7 10 -22 10l-11 -5q-11 -10 -26.5 -25t-29.5 -32t-25 -34t-14 -30q-8 -36 10.5 -60.5t55.5 -24.5q11 0 27 5t31.5 13t27 19.5t14.5 24.5zM467 462l-8 -7l-5 7l8 7zM206 462l-8 -7l-5 7l8 7z" />
    <glyph glyph-name="acute" unicode="&#xb4;" horiz-adv-x="293" 
d="M272 750q3 18 -15 18h-37l-12 -5q-6 -7 -21.5 -24t-36 -39.5t-43 -47t-41.5 -45.5t-31.5 -36.5t-13.5 -18.5q-3 -19 16 -19h17q6 3 24 19.5t42 39.5t50.5 50t49 50t37 39t15.5 19z" />
    <glyph glyph-name="mu" unicode="&#xb5;" horiz-adv-x="483" 
d="M504 462q-2 10 -8 16l-7 3h-26l-9 -3q-11 -7 -15 -16l-53 -249q-7 -33 -24 -62.5t-42 -52t-55.5 -35.5t-64.5 -13q-31 0 -49.5 16t-26.5 40t-8 52q0 29 6 55q13 63 27.5 124.5t28.5 124.5q3 19 -15 19h-26l-9 -3l-14 -12q-14 -60 -27 -119.5t-26 -119.5l-15 -68
q-17 -78 -32.5 -156.5t-32.5 -157.5q1 -5 3.5 -8.5t4.5 -6.5l7 -4h13q10 0 22.5 2.5t14.5 16.5q10 45 18.5 90t15.5 90q20 -17 50 -25t58 -8q56 0 99.5 16.5t76 46.5t54 73t33.5 96z" />
    <glyph glyph-name="paragraph" unicode="&#xb6;" horiz-adv-x="429" 
d="M313 19l143 669q-2 10 -8 16l-7 4q-28 0 -55 1.5t-55 1.5q-102 0 -166.5 -45t-86.5 -151q-22 -103 22 -158t147 -55l-62 -283l2 -7q5 -9 13 -12h14q10 3 19 12l4 7l135 631h21l-135 -631q2 -6 6.5 -11.5t9.5 -7.5h16l9 4q4 3 8 6.5t6 8.5zM258 361q-71 1 -100.5 43
t-14.5 111q16 73 60.5 105t114.5 32h2z" />
    <glyph glyph-name="periodcentered" unicode="&#xb7;" horiz-adv-x="163" 
d="M119 391l10 46l-3 10l-10 9h-48q-11 -4 -18 -11l-6 -8l-10 -46l3 -10l10 -10h48q6 2 14 8t10 12z" />
    <glyph glyph-name="periodcentered" unicode="&#x2219;" horiz-adv-x="163" 
d="M119 391l10 46l-3 10l-10 9h-48q-11 -4 -18 -11l-6 -8l-10 -46l3 -10l10 -10h48q6 2 14 8t10 12z" />
    <glyph glyph-name="cedilla" unicode="&#xb8;" horiz-adv-x="269" 
d="M221 -100q3 15 -1.5 27.5t-13.5 22t-21.5 16t-24.5 10.5l1 -1l-23 9q5 8 15.5 20.5t12.5 19.5q3 14 -9 17t-23 3l-14 -6q-13 -16 -26.5 -35.5t-17.5 -37.5q-3 -16 9.5 -25t28 -15t29 -11.5t11.5 -15.5q-3 -14 -17 -17.5t-24 -3.5q-21 0 -35.5 11t-25.5 11q-7 0 -13.5 -6
t-8.5 -13l-6 -30l5 -12q15 -10 34 -14.5t39 -4.5q19 0 38.5 4.5t36 14t28 25t16.5 37.5z" />
    <glyph glyph-name="onesuperior" unicode="&#xb9;" horiz-adv-x="595" 
d="M622 611q1 5 -4 11.5t-10 6.5h-26l-8 -3l-9 -7l-4 -8q-10 -44 -41 -75.5t-78 -31.5q-48 0 -65.5 31t-7.5 76l-1 4l73 120q3 5 -1 14t-9 9h-29l-19 -12l-296 -492q-23 -38 -46 -83t-32 -86q-11 -51 12 -71t71 -20q21 0 51.5 7t49.5 23q4 6 11 19t9 19q1 5 -2.5 9.5
t-8.5 6.5l-18 -5h1q-16 -9 -33 -15t-34 -6q-52 0 -42 50q5 22 22.5 58.5t41.5 79.5t51 88.5t51.5 84.5t42.5 67.5t24 37.5q14 -37 46.5 -53.5t74.5 -16.5q36 0 68 12t56.5 34t42 51.5t25.5 65.5zM478 -66q2 7 -3 12t-10 7h-26q-10 -3 -18 -11l-4 -8q-10 -44 -41 -75.5
t-78 -31.5q-48 0 -65.5 31t-7.5 76q-2 14 -14 19h-25q-6 -2 -13 -7t-9 -12q-16 -74 15.5 -118.5t106.5 -44.5q36 0 67.5 12t57 34t42.5 52t25 65z" />
    <glyph glyph-name="ordmasculine" unicode="&#xba;" horiz-adv-x="332" 
d="M296 580q6 28 2.5 52t-16.5 41.5t-34 27.5t-49 10q-64 0 -101 -36t-50 -97q-5 -24 -4.5 -46t9 -40t24 -30t40.5 -16h-55q-7 -2 -14.5 -8t-9.5 -12l-4 -17l2 -8q5 -8 14 -11h163q10 3 18 11l6 8l4 17q-1 6 -6 12t-10 8h-60q25 4 47 16.5t39 31t28.5 41t16.5 45.5zM233 580
q-3 -14 -9.5 -28.5t-16.5 -26.5t-23.5 -20t-29.5 -8t-27 7t-17.5 18.5t-8 26t1.5 29.5q6 30 29.5 54.5t55.5 24.5q15 0 25 -7t15.5 -18.5t6.5 -25t-2 -26.5z" />
    <glyph glyph-name="guillemotright" unicode="&#xbb;" horiz-adv-x="435" 
d="M390 360l2 10q-5 15 -22.5 40t-39.5 52t-43.5 51.5t-33.5 38.5l-10 5q-14 -2 -21 -11.5t-12 -20.5v1l-3 -6l-2 -10q1 -6 17 -26t36 -44t39 -45.5t25 -29.5l-173 -138l-6 -9l-2 -10q1 -4 2 -10t2.5 -12t4.5 -10.5t9 -4.5q3 0 21 12.5t42.5 32t52.5 42t52.5 43t41 35
t18.5 17.5l-1 -1q4 4 4 8zM258 353l-2 -1q1 0 2 1zM260 360l2 10l-3 14l-135 168l-10 5q-14 -2 -21 -11.5t-12 -20.5v1l-3 -6l-2 -10q1 -4 8.5 -14.5t19.5 -25t26 -31t26.5 -31.5t23 -26.5t14.5 -16.5l-172 -136q-3 -4 -5.5 -8.5t-4.5 -9.5l6 -31l11 -8q4 0 22 13t43 32
t53 41.5t51.5 42.5t40 34.5t17.5 16.5l-2 -3l-4 22zM385 352q0 -1 -1 -2v1q1 0 1 1z" />
    <glyph glyph-name="onequarter" unicode="&#xbc;" horiz-adv-x="636" 
d="M663 611q1 5 -4.5 11.5t-10.5 6.5h-26l-8 -3q-8 -6 -13 -15q-10 -44 -41 -75.5t-78 -31.5q-48 0 -65.5 31t-7.5 76l-1 4q4 7 15.5 25.5t24.5 39.5t23 39t11 23q2 4 -2.5 10t-8.5 6h-29l-19 -12l-296 -492q-23 -38 -46 -83t-32 -86q-11 -51 12 -71t71 -20q22 0 51.5 7
t49.5 23q5 6 12 18.5t9 19.5q1 5 -3 9.5t-9 6.5l-17 -5h1q-17 -9 -34 -15t-34 -6q-51 0 -41 50q5 23 22.5 59.5t41 79t50 87t51 83t43 67.5t25.5 40q13 -38 45.5 -54t74.5 -16q36 0 68 12t57 34t42.5 51.5t25.5 65.5zM246 541q6 29 -10 49.5t-45 20.5t-54 -20.5t-31 -49.5
t10 -49t45 -20t54 20t31 49zM519 -66q2 7 -3.5 12t-10.5 7h-26l-9 -4q-8 -6 -13 -15q-10 -44 -41 -75.5t-78 -31.5q-48 0 -65.5 31t-7.5 76l-2 8q-1 4 -4.5 6.5t-7.5 4.5h-25q-6 -2 -13 -7t-9 -12q-16 -74 15.5 -118.5t106.5 -44.5q36 0 68 12t57 34t42.5 51.5t25.5 65.5z
M223 538q-2 -12 -12.5 -20.5t-22.5 -8.5t-18.5 8.5t-4.5 20.5q3 12 13 20.5t22 8.5t19 -8.5t4 -20.5z" />
    <glyph glyph-name="onehalf" unicode="&#xbd;" horiz-adv-x="635" 
d="M270 493q6 29 -10 49.5t-45 20.5t-53.5 -20.5t-30.5 -49.5t9.5 -49.5t44.5 -20.5t54 20.5t31 49.5zM667 570q2 7 -3.5 12t-10.5 7h-26l-9 -4l-7 -7t-6 -8q-9 -44 -40.5 -75.5t-78.5 -31.5q-65 0 -76 61l18 73q-1 5 -4.5 10.5t-7.5 8.5h-18q-10 0 -23.5 -2.5t-16.5 -16.5
q-8 -39 -16 -78.5t-16 -78.5q-38 -17 -84 -44t-87 -61t-72 -73.5t-40 -82.5q-11 -52 -3.5 -87.5t30.5 -57t59.5 -31t84.5 -9.5q18 0 39 2t42 6.5t41.5 11t38.5 16.5l9 12l3 15q1 5 2 11.5t0.5 12.5t-3.5 10t-10 4q-5 0 -21.5 -6.5t-38 -14.5t-46 -14.5t-45.5 -6.5
q-66 0 -98.5 27.5t-17.5 98.5q8 39 37.5 73.5t68.5 62.5t81.5 49t77.5 33l10 13l4 20q18 -13 40.5 -18t46.5 -5q36 0 67.5 12t57 34t42.5 51.5t25 65.5zM534 -58q2 7 -3.5 11.5t-10.5 6.5h-26q-16 -5 -22 -18q-10 -44 -41 -75.5t-78 -31.5q-48 0 -65.5 31t-7.5 76l-2 8
q-5 6 -12 10h-25q-6 -2 -13 -6.5t-9 -11.5q-16 -74 15.5 -118.5t106.5 -44.5q36 0 68 12t57 34t42.5 51.5t25.5 65.5zM190 496q-1 -7 -6.5 -12t-12.5 -5t-11 5t-3 12q2 7 8 12t13 5t11 -5t2 -12h-1z" />
    <glyph glyph-name="threequarters" unicode="&#xbe;" horiz-adv-x="590" 
d="M574 387q6 29 -9.5 49t-44.5 20t-54 -20t-31 -49t10 -49.5t45 -20.5t53.5 20.5t30.5 49.5zM403 18l30 142q0 6 -5 12t-11 8h-22l-11 -5l-11 -12l-22 -100q-30 -2 -60 -3t-60 -1q-33 0 -66.5 0.5t-66.5 0.5q29 27 67.5 61.5t79.5 73.5t82 81t75 84.5t58 83t32 77.5
q11 52 6 88t-25 58.5t-55.5 32t-85.5 9.5q-37 0 -74 -6t-75 -16l-12 -11l-5 -8q-1 -5 -3 -12.5t-2.5 -15.5t2 -13.5t9.5 -5.5q17 0 35.5 4t37 9.5t37 9.5t36.5 4q64 0 94 -30t16 -97q-8 -35 -34 -75.5t-64 -83t-82.5 -86t-88.5 -84t-84 -75.5t-67 -62l-8 -36l2 -7
q4 -9 13 -12h364q5 2 9 4.5t9 5.5zM313 387q6 29 -9.5 49t-44.5 20t-54 -20t-31 -49t10 -49.5t45 -20.5t53.5 20.5t30.5 49.5zM455 -66q2 7 -3 12t-10 7h-26q-14 -5 -23 -19q-9 -44 -40 -75.5t-78 -31.5q-48 0 -65.5 31t-7.5 76q0 6 -4.5 11.5t-9.5 7.5h-26q-6 -2 -12.5 -7
t-8.5 -12q-16 -74 15.5 -118.5t106.5 -44.5q36 0 67.5 12t57 34t42.5 52t25 65zM482 344h-4q-8 0 -11 5t-2 11.5t6.5 11.5t13.5 5h4q8 0 11 -5.5t2 -11.5t-6.5 -11.5t-13.5 -5.5v1zM228 353q-2 -7 -7.5 -12t-12.5 -5t-11 5t-2 12t8 12t13 5t11 -5t2 -12h-1z" />
    <glyph glyph-name="questiondown" unicode="&#xbf;" horiz-adv-x="459" 
d="M400 653l8 39l-2 8t-4 7l-7 4h-35l-9 -4q-3 -3 -6.5 -7t-5.5 -8l-7 -35q1 -4 2.5 -7.5t3.5 -6.5l7 -4h35l9 4zM351 57q1 5 2 11.5t0.5 12.5t-3.5 10t-10 4q-5 0 -21 -6.5t-38 -14.5t-46.5 -14.5t-45.5 -6.5q-66 0 -98.5 27.5t-17.5 98.5q8 39 37.5 73.5t68.5 62.5
t81.5 49t77.5 33l10 13l44 187q-1 5 -4.5 10.5t-7.5 8.5h-18q-10 0 -23.5 -2.5t-16.5 -16.5q-8 -39 -16 -78.5t-15 -78.5q-38 -17 -84 -44t-87.5 -61t-72.5 -73.5t-40 -82.5q-11 -51 -3.5 -86.5t30.5 -57.5t59.5 -31.5t84.5 -9.5q18 0 39 2t42 6.5t41.5 11t38.5 16.5l9 12z
" />
    <glyph glyph-name="Agrave" unicode="&#xc0;" horiz-adv-x="649" 
d="M460 715q0 2 -4.5 17.5t-12 39t-16.5 51t-17 52t-14.5 43.5t-8.5 25l-10 5h-37q-8 0 -14.5 -5.5t-8.5 -13.5q0 -2 6 -17.5t15 -38.5t20 -50t21 -52t18 -43.5t10 -24.5l11 -6h16q10 0 17 3.5t9 14.5zM504 17q1 5 -2 29.5t-8 59.5t-11 75.5t-12 77.5t-10.5 66.5t-5.5 40.5
l-45 332l-13 8h-42l-14 -8q-97 -172 -194.5 -341t-196.5 -340q-1 -8 4 -12.5t13 -4.5h30l15 8l76 130t75 131h238l39 -261l11 -8l24 -1q9 0 18 3.5t11 14.5zM394 330h-199l162 278z" />
    <glyph glyph-name="Aacute" unicode="&#xc1;" horiz-adv-x="649" 
d="M555 922q5 20 -15 20h-37l-12 -6q-5 -6 -21 -23t-36.5 -39t-43 -47.5t-41.5 -46.5t-32 -36.5t-13 -17.5q-3 -19 16 -19h20l12 5q21 18 47.5 44.5t54.5 56t54.5 58.5t46.5 51zM505 17q1 5 -2 29.5t-8 59.5t-11 75.5t-12 77.5t-10.5 66.5t-5.5 40.5l-46 332l-12 8h-42
l-15 -8q-97 -172 -194 -341t-196 -340q-2 -8 3.5 -12.5t13.5 -4.5h30l15 8l76 130t74 131h238l40 -261l11 -8l24 -1q9 0 17.5 3.5t11.5 14.5zM395 330h-199l161 278z" />
    <glyph glyph-name="Acircumflex" unicode="&#xc2;" horiz-adv-x="649" 
d="M604 711q0 2 -8.5 15t-22 31.5t-30 40t-32 40.5t-27.5 33.5t-16 19.5v-1q-2 2 -6 4t-6 2h-51q-6 -3 -24.5 -16t-43 -32.5t-52 -41.5t-50.5 -41.5t-38.5 -33.5t-16.5 -18q-2 -9 1.5 -15t13.5 -6h32q95 77 194 150l129 -150h10q10 0 25.5 2.5t18.5 16.5zM509 17
q1 5 -1.5 29.5t-7.5 59.5t-11 75.5t-12 77.5t-10.5 66.5t-5.5 40.5l-46 332l-12 8h-42l-15 -8q-97 -172 -194 -341t-197 -340q-1 -8 4.5 -12.5t13.5 -4.5h30l15 8l76 130t74 131h238l40 -261l11 -8l24 -1q9 0 17.5 3.5t10.5 14.5zM400 330h-199l161 278z" />
    <glyph glyph-name="Atilde" unicode="&#xc3;" horiz-adv-x="649" 
d="M625 798l-9 23l-10 7q-6 0 -15 -6.5t-20 -14.5t-24.5 -15t-29.5 -7q-22 0 -41 7t-38 16t-38.5 16t-42.5 7q-32 0 -65.5 -19t-58.5 -42l-3 -15q2 -8 4 -11l-1 1q2 -8 7.5 -14t14.5 -6l9 4q17 14 38.5 28.5t42.5 14.5q22 0 41 -7t38 -15t38.5 -15t42.5 -7q29 0 61 16t55 37
zM516 17q1 5 -2 29.5t-7.5 59.5t-10.5 75.5t-12 77.5t-10.5 66.5t-5.5 40.5l-46 332l-12 8h-42l-15 -8q-97 -172 -194 -341t-197 -340q-1 -8 4.5 -12.5t13.5 -4.5h30l14 8q39 65 76.5 130t74.5 131h238l39 -261l12 -8l24 -1q8 0 17 3.5t11 14.5zM407 330h-199l161 278z" />
    <glyph glyph-name="Adieresis" unicode="&#xc4;" horiz-adv-x="649" 
d="M525 735l8 42l-2 10l-10 10h-45l-9 -4q-8 -5 -15 -16l-8 -42q0 -6 5 -12t10 -8h41q7 2 14.5 8t10.5 12zM355 730l11 48q-2 10 -8 16l-7 4h-42q-7 -2 -13 -8t-9 -12l-9 -43q0 -6 4.5 -12t9.5 -8h42l9 4zM520 17q1 5 -2 29.5t-8 59.5t-11 75.5t-12 77.5t-10.5 66.5
t-5.5 40.5l-45 332l-13 8h-42l-14 -8q-97 -172 -194.5 -341t-196.5 -340q-1 -8 4 -12.5t13 -4.5h30l15 8l76 130t74 131h238l40 -261l11 -8l24 -1q9 0 18 3.5t11 14.5zM410 330h-199l162 278z" />
    <glyph glyph-name="Aring" unicode="&#xc5;" horiz-adv-x="649" 
d="M518 17q1 2 -2.5 28.5t-9 68t-13 95t-15.5 110t-16.5 113t-15.5 104t-12 82.5l-7 49q20 11 33.5 30.5t18.5 39.5q7 34 -11.5 57t-52.5 23t-62 -23t-35 -57q-5 -20 -0.5 -39.5t20.5 -30.5q-7 -13 -27 -47t-47.5 -81.5l-60.5 -104.5t-66 -114.5t-64 -111.5t-55.5 -96
t-39 -68t-14.5 -27q-2 -8 4 -12.5t13 -4.5h30l15 8l76 130t74 131h238l40 -261l11 -8l24 -1q9 0 18 3.5t11 14.5zM439 748q1 -8 -3.5 -15.5t-11.5 -13.5t-16 -9.5t-16 -1.5q-11 2 -17 10t-4 19q2 12 12 19.5t22 9.5q13 2 22.5 -2.5t11.5 -15.5zM409 330h-200l162 278z" />
    <glyph glyph-name="AE" unicode="&#xc6;" horiz-adv-x="790" 
d="M673 36q2 11 0 19.5t-14 8.5q-65 0 -129.5 -2t-129.5 -2l57 280h132q12 0 24 -0.5t24 -0.5l5 3q6 0 17 2.5t13 11.5l5 24l-2 8q-5 8 -14 11h-192q12 58 23.5 116t23.5 116l4 15h255q6 0 10 4.5t7 11t4.5 13t2.5 10.5q-1 5 -2.5 9.5t-4.5 7.5l-8 4h-339l-14 -8
q-9 -13 -33.5 -49t-58 -85.5t-73 -109.5t-79.5 -120t-77.5 -117t-66.5 -101t-46.5 -71.5t-17.5 -28.5q-2 -7 3.5 -11.5t11.5 -4.5h31l15 8q55 84 109.5 166t110.5 166h132l-66 -321q2 -5 5.5 -11t8.5 -8q152 0 305 -3l8 4q4 3 8 6.5t7 8.5l2 10t3 10zM404 399h-107
q38 59 76.5 117t78.5 116q-11 -49 -20 -97t-20 -97z" />
    <glyph glyph-name="Ccedilla" unicode="&#xc7;" horiz-adv-x="667" 
d="M579 75q2 9 0 16.5t-13 7.5q-3 0 -11 -2h1q-53 -17 -107.5 -30.5t-107.5 -13.5q-69 0 -115 24t-71 65t-30 97t9 121q29 137 110 214.5t224 77.5q50 0 94.5 -10.5t87.5 -26.5l-3 3q2 -1 5.5 -2.5t4.5 -1.5q8 0 15 5t9 13l7 33l-5 12q-47 20 -97.5 27t-104.5 7
q-175 0 -275.5 -90t-137.5 -261q-14 -68 -11.5 -129t25.5 -109t68 -80t114 -43q-4 -8 -8 -16.5t-6 -17.5q-3 -16 9 -25t28 -15.5t29 -12t11 -14.5q-3 -13 -16 -17t-23 -4q-24 0 -38.5 11t-23.5 11q-8 0 -14 -5.5t-8 -13.5l-6 -30l3 -12q31 -19 74 -19q19 0 38.5 4.5t35.5 14
t27.5 25t16.5 37.5q4 18 -3 32t-19.5 24t-28.5 17t-30 11l7 11q55 -1 120.5 10t122.5 34l10 11z" />
    <glyph glyph-name="Egrave" unicode="&#xc8;" horiz-adv-x="434" 
d="M292 16l1 6q1 6 2.5 13.5t1.5 13.5q0 7 -3.5 12t-11.5 5q-33 0 -66.5 -2.5t-66.5 -2.5h-66q-16 0 -31 0.5t-31 0.5l58 273h136q9 0 29 -2t41 -2t38 4t20 16l5 26q0 5 -2.5 9t-5.5 7l-8 3h-240l53 249h128q30 0 60 -2t60 -2q20 0 23 19l6 26l-1 8l-6 8l-7 4h-99q5 5 7 12
q0 3 -4.5 19t-11.5 39t-16 50t-17 51.5t-14.5 43t-8.5 25.5l-11 6h-37q-19 0 -24 -19q0 -1 6 -17t15 -39t20 -50.5t21 -52t18 -43t10 -24.5l2 -1h-152q-6 -2 -13 -8t-10 -12q-34 -168 -69.5 -333.5t-72.5 -333.5q4 -13 15 -19q77 0 153.5 -0.5t153.5 -2.5q5 2 12 8t11 11z
" />
    <glyph glyph-name="Eacute" unicode="&#xc9;" horiz-adv-x="434" 
d="M293 16l1 6q1 6 2.5 13.5t1.5 13.5q0 7 -3.5 12t-11.5 5q-33 0 -66.5 -2.5t-66.5 -2.5h-66q-16 0 -31 0.5t-31 0.5l59 273h136q8 0 23.5 -1.5t30.5 -1.5q16 0 29 4t15 15l5 26q0 5 -2.5 9t-5.5 7l-8 3h-211l53 249h128q30 0 60.5 -2t60.5 -2q18 0 23 19l5 26l-1 8l-5 8
l-8 4h-192q4 2 21.5 18t41.5 39t50.5 50t49 50.5t37.5 40t16 18.5q2 8 -2 13.5t-12 5.5h-38l-10 -5q-6 -6 -22 -22.5t-36.5 -39t-43.5 -47t-42 -46t-32 -37t-14 -19.5q-3 -17 13 -19h-81q-6 -2 -13 -8t-10 -12q-34 -168 -69 -333.5t-73 -333.5q4 -13 15 -19q77 0 153.5 -0.5
t153.5 -2.5q5 2 12 8t11 11z" />
    <glyph glyph-name="Ecircumflex" unicode="&#xca;" horiz-adv-x="515" 
d="M526 711q0 2 -8.5 15t-22 31.5t-30 39.5t-32 40t-27.5 33.5t-16 19.5q-1 1 -6 3t-7 2h-54l-213 -170l-9 -14q-2 -9 3 -13.5t12.5 -5.5t16.5 -0.5t15 0.5q-1 -1 -7 -28t-15.5 -70.5t-21.5 -100t-24.5 -116.5t-25 -119t-23 -108t-17.5 -84t-10 -47q0 -5 2.5 -8.5t4.5 -6.5
l7 -4q77 0 153.5 -0.5t153.5 -2.5q5 2 11.5 6.5t10.5 8.5l4 22q3 11 1.5 21.5t-15.5 10.5q-33 0 -66.5 -2.5t-66.5 -2.5h-102q-7 0 -13 0.5t-13 0.5l58 273h136q9 0 29.5 -2t41.5 -2t37.5 4t19.5 16l5 26l-1 8l-6 8l-8 3h-241l53 249h129q30 0 60 -2t60 -2q8 0 15 5.5
t9 13.5q2 5 4.5 16.5t0.5 15.5h12q8 0 15.5 1.5t13 5.5t7.5 12zM459 706h-293q45 33 88 67t88 68z" />
    <glyph glyph-name="Edieresis" unicode="&#xcb;" horiz-adv-x="434" 
d="M397 736l9 42q-2 10 -8 16l-7 4h-42q-7 -2 -14 -8t-9 -12l-9 -42q0 -6 4.5 -12t10.5 -8h42l8 4q10 7 15 16zM231 736l9 43q0 6 -4.5 12t-10.5 8h-42l-9 -4q-4 -3 -8 -7t-6 -9l-9 -43q2 -11 7 -16l8 -4h42q6 2 13 8t10 12zM308 16l1 6q1 6 2.5 13.5t1.5 13.5q0 7 -3.5 12
t-11.5 5q-33 0 -66.5 -2.5t-66.5 -2.5h-66q-16 0 -30.5 0.5t-30.5 0.5l58 273h136q9 0 28.5 -2t40.5 -2t38 4t20 16l6 26q-1 5 -3.5 9t-5.5 7l-7 3h-240l53 249h128q30 0 60 -2t60 -2q18 0 23 19l5 26l-1 8l-5 8l-8 4h-296q-6 -2 -13 -8t-10 -12q-34 -168 -69 -333.5
t-73 -333.5q4 -13 15 -19q77 0 153.5 -0.5t153.5 -2.5q5 2 12 8t11 11z" />
    <glyph glyph-name="Igrave" unicode="&#xcc;" horiz-adv-x="272" 
d="M281 708q1 3 -3.5 19t-12 39.5t-16 50.5t-17 51.5t-15 42.5t-8.5 24l-11 6h-36q-8 0 -15.5 -5t-9.5 -13q0 -2 5.5 -17t14.5 -37t19.5 -48.5t20 -50t17 -41t9.5 -23.5h-19q-7 -2 -13.5 -8t-9.5 -12l-142 -667q4 -13 15 -19h26q6 2 13 8t10 11l142 667l-1 3q11 -1 22.5 1.5
t14.5 17.5z" />
    <glyph glyph-name="Iacute" unicode="&#xcd;" horiz-adv-x="293" 
d="M345 904q2 8 -2.5 13t-12.5 5h-37l-12 -5q-5 -6 -21 -23.5t-36.5 -40t-43 -47.5t-41.5 -46.5t-32 -36t-13 -16.5q-2 -8 2.5 -14t12.5 -6h17q12 5 18.5 12t16.5 16v-1l20.5 20.5t36 35.5t42.5 42t40.5 41.5t31 33.5t13.5 17zM85 15l143 671q-2 10 -8 16l-7 4h-26
q-7 -2 -13.5 -8t-9.5 -12l-142 -667q4 -13 15 -19h26q5 2 11.5 6.5t10.5 8.5z" />
    <glyph glyph-name="Icircumflex" unicode="&#xce;" horiz-adv-x="515" 
d="M526 710q0 3 -7.5 15t-20 28.5t-27.5 35.5t-28.5 36t-24 30t-14.5 18v-1q-5 6 -10.5 14.5t-15.5 8.5h-54l-213 -171q-2 -2 -5.5 -7t-3.5 -7q-2 -8 3 -13.5t13 -5.5h31l96 74t96 75l130 -149h17q9 0 22 2.5t16 16.5zM200 19l142 667q-1 6 -5.5 12t-9.5 8h-27q-7 -2 -14 -8
t-9 -12l-142 -667q1 -5 5.5 -11t9.5 -8h27q6 2 12.5 8t10.5 11z" />
    <glyph glyph-name="Idieresis" unicode="&#xcf;" horiz-adv-x="330" 
d="M357 717l10 48q-2 14 -15 19h-41q-11 -4 -18 -11l-5 -8l-9 -43l2 -7q4 -9 13 -12h41q5 2 11.5 6t10.5 8zM191 722l9 44l-1 7q-6 9 -14 12h-41l-8 -4q-4 -3 -8 -6.5t-7 -8.5l-9 -44q1 -5 3.5 -8.5t4.5 -6.5l7 -4h41q8 3 19 12zM120 15l142 671q0 9 -7 16l-7 4h-26
q-7 -2 -14 -8t-10 -12l-141 -667q1 -5 5.5 -11t9.5 -8h26q5 2 11.5 6.5t10.5 8.5z" />
    <glyph glyph-name="Eth" unicode="&#xd0;" horiz-adv-x="139" 
d="M79 274l41 194l-2 8q-2 3 -5 6t-8 5h-23q-5 -2 -11.5 -6.5t-10.5 -9.5l-41 -194q1 -5 5.5 -11t9.5 -8h23q5 2 11.5 6.5t10.5 9.5z" />
    <glyph glyph-name="Ntilde" unicode="&#xd1;" horiz-adv-x="638" 
d="M627 806l-10 24l-10 6q-7 0 -16.5 -6.5t-22 -14.5t-28 -14.5t-34.5 -6.5q-26 0 -48 7t-44 15.5t-44.5 15.5t-47.5 7q-9 0 -31 -7t-45.5 -17t-41.5 -22.5t-20 -22.5q-2 -9 5.5 -21t15.5 -15q8 0 19.5 7t25 15.5t29 16t32.5 7.5q25 0 47.5 -6.5t44 -15t44 -15t47.5 -6.5
q12 0 31 4.5t39 12.5t36.5 18t23.5 22zM506 19l142 667l-3 10l-10 10h-31q-7 -2 -14 -8t-9 -12q-30 -143 -59 -284t-58 -284q-72 148 -146 292.5t-151 289.5l-9 6h-30q-7 -2 -14.5 -8t-9.5 -12l-142 -667l3 -9l10 -10h29q5 2 12 8t11 11q29 143 58.5 284.5t60.5 284.5
q72 -149 148 -292.5t151 -289.5l9 -6h28q6 2 13 7.5t11 11.5z" />
    <glyph glyph-name="Ograve" unicode="&#xd2;" 
d="M501 745q0 2 -4.5 17.5t-12 38.5t-17 50.5t-18 52t-15 43t-8.5 25.5l-10 6q-6 0 -15 0.5t-18.5 -0.5t-17 -5t-9.5 -13q-1 -3 4.5 -19t14.5 -39t20 -49.5t21.5 -51t18.5 -43t11 -25.5l4 -3l35 -3l7 6t9 12zM670 360q17 80 12 145t-35 110.5t-86 70.5t-140 25t-150.5 -25
t-116 -70.5t-82.5 -110.5t-50 -145q-17 -77 -11 -144t35.5 -116.5t84.5 -77.5t138 -28q81 0 147.5 29t117.5 78.5t85.5 116.5t50.5 142zM603 360q-13 -60 -40 -115.5t-67.5 -98t-94 -68t-120.5 -25.5q-66 0 -109.5 25.5t-66 68t-26.5 98t9 115.5q14 64 40 117.5t65.5 92.5
t93 60.5t122.5 21.5t115 -22t66 -50q13 -18 18.5 -45.5t6 -58t-3 -61.5t-8.5 -55z" />
    <glyph glyph-name="Oacute" unicode="&#xd3;" 
d="M599 961q2 10 -2.5 15t-13.5 5h-36l-13 -5q-5 -6 -20.5 -23t-36 -40t-43 -48t-41.5 -46.5t-32 -36.5t-13 -17q-2 -7 5 -13l7 -6q2 0 10.5 1t17.5 1.5t4 0.5q2 1 16 15t35 35.5t45.5 47t47 49t40 41.5t23.5 24zM670 360q17 80 11.5 145t-35.5 110.5t-85.5 70.5t-139.5 25
t-150.5 -25t-116 -70.5t-82.5 -110.5t-50 -145q-17 -77 -11 -144t35.5 -116.5t84.5 -77.5t138 -28q81 0 147.5 29t117.5 78.5t85.5 116.5t50.5 142zM603 360q-13 -60 -40 -115.5t-67.5 -98t-94 -68t-120.5 -25.5q-66 0 -109.5 25.5t-66 68t-26.5 98t9 115.5
q13 64 39.5 117.5t66 92.5t93 60.5t122.5 21.5t114.5 -22t66.5 -50q13 -18 18.5 -45.5t6 -58t-3 -61.5t-8.5 -55z" />
    <glyph glyph-name="Ocircumflex" unicode="&#xd4;" 
d="M648 708q1 4 -7.5 18t-22 32.5t-30 40t-31.5 40.5t-27 33.5t-17 19.5v-1l-12 6h-50l-9 -3l-208 -168l-9 -14q-2 -8 2.5 -13.5t12.5 -5.5h32q49 37 97 74t96 75l129 -149h11h10t14 1.5t12.5 4.5t6.5 9zM679 360q17 80 11.5 145t-35.5 110.5t-86 70.5t-140 25t-150.5 -25
t-116 -70.5t-82 -110.5t-49.5 -145q-17 -77 -11 -144t35.5 -116.5t84.5 -77.5t138 -28q81 0 147.5 29t117.5 78.5t85.5 116.5t50.5 142zM612 360q-13 -60 -40 -115.5t-67.5 -98t-94 -68t-120.5 -25.5q-66 0 -109.5 25.5t-66 68t-26.5 98t9 115.5q13 64 39.5 117.5t66 92.5
t93 60.5t122.5 21.5t114.5 -22t66.5 -50q13 -18 18.5 -45.5t6 -58t-3 -61.5t-8.5 -55z" />
    <glyph glyph-name="Otilde" unicode="&#xd5;" 
d="M644 795q-4 8 -8 17t-13 13q-5 0 -12.5 -6.5t-19 -14.5t-25.5 -14.5t-30 -6.5q-21 0 -40 7t-38 15.5t-38.5 15.5t-43.5 7q-31 0 -65.5 -19.5t-58.5 -42.5l-3 -15l5 -11l-1 1q2 -7 7 -12.5t13 -5.5l9 3q17 14 38.5 28.5t42.5 14.5q22 0 42 -7t38.5 -15t38 -15t42.5 -7
q29 0 60.5 16.5t54.5 38.5zM686 360q17 80 12 145t-35 110.5t-86 70.5t-140 25t-150.5 -25t-116 -70.5t-82.5 -110.5t-50 -145q-17 -77 -11 -144t35.5 -116.5t84.5 -77.5t138 -28q81 0 147.5 29t117.5 78.5t85.5 116.5t50.5 142zM619 360q-13 -60 -40 -115.5t-67.5 -98
t-94 -68t-120.5 -25.5q-66 0 -109.5 25.5t-66 68t-26.5 98t9 115.5q14 64 40 117.5t65.5 92.5t93 60.5t122.5 21.5t115 -22t66 -50q13 -18 18.5 -45.5t6 -58t-3 -61.5t-8.5 -55z" />
    <glyph glyph-name="Odieresis" unicode="&#xd6;" 
d="M568 730l10 47q0 6 -5 12t-11 8h-42q-9 -3 -18 -12l-5 -8l-9 -42l2 -10l10 -10h46q5 2 11.5 6.5t10.5 8.5zM400 730l10 48l-1 8q-6 9 -14 12h-42l-8 -4q-11 -7 -15 -16l-9 -43q0 -6 5 -12t11 -8h42l9 4zM689 360q17 80 12 145t-35 110.5t-86 70.5t-140 25t-150.5 -25
t-116 -70.5t-82.5 -110.5t-50 -145q-16 -77 -10.5 -144t35.5 -116.5t85 -77.5t138 -28q81 0 147.5 29t117.5 78.5t85 116.5t50 142zM622 360q-13 -60 -40 -115.5t-67.5 -98t-94 -68t-120.5 -25.5q-66 0 -109.5 25.5t-66 68t-26.5 98t9 115.5q14 64 40 117.5t65.5 92.5
t93 60.5t122.5 21.5t115 -22t66 -50q13 -18 18.5 -45.5t6 -58t-3 -61.5t-8.5 -55z" />
    <glyph glyph-name="Oslash" unicode="&#xd8;" 
d="M699 360q7 32 10.5 70.5t0.5 76t-13.5 71t-31.5 54.5l10.5 10.5t16 16.5t15 17t6.5 11q2 8 -3 13.5t-13 5.5h-32l-12 -6l-31 -32q-35 20 -81.5 31.5t-90.5 11.5q-84 0 -150.5 -25t-116 -70.5t-82.5 -110.5t-50 -145q-7 -32 -10.5 -67t-1.5 -69.5t10.5 -65.5t25.5 -56
q-5 -4 -16.5 -16.5t-24 -26t-22.5 -25.5t-11 -16q-2 -8 3 -13t13 -5h33l12 6q27 25 51 51q35 -29 85 -46t101 -17q82 0 148.5 29t117 78.5t84.5 116t50 142.5zM614 579l7.5 -11t14.5 -36.5t8 -67.5t-12 -104q-13 -60 -40 -115.5t-67.5 -98t-94 -68t-120.5 -25.5
q-42 0 -83 13t-67 41q113 119 226.5 236.5t227.5 235.5zM574 612l10 16q-115 -118 -228 -234.5t-227 -234.5q-19 44 -21 96.5t9 104.5q13 64 39.5 118t66 92.5t93.5 60t123 21.5q19 0 42.5 -6.5t44 -14t34.5 -13.5z" />
    <glyph glyph-name="Ugrave" unicode="&#xd9;" horiz-adv-x="624" 
d="M443 717q0 3 -4 19t-11.5 39t-16 50t-17 51.5t-15 43t-8.5 25.5l-10 6h-37q-9 0 -15.5 -4.5t-8.5 -14.5q-1 -2 5 -17.5t15 -38.5t20.5 -50t21.5 -52t17.5 -43.5t10.5 -24.5l11 -7h20q8 0 14 5t8 13zM618 665l4 21q0 6 -4.5 12t-9.5 8h-27q-7 -2 -14.5 -8t-10.5 -12
l-32 -152q-14 -69 -29.5 -139t-38.5 -139q-14 -42 -34.5 -78.5t-49.5 -64t-66 -43.5t-83 -16q-51 0 -82 14.5t-47.5 41t-19.5 64t2 83.5q12 107 35.5 214.5t46.5 214.5q0 6 -5 12t-10 8h-27q-7 -2 -14 -8t-10 -12l-5 -27q-22 -102 -42 -203t-34 -203q-8 -62 -3 -110.5
t27.5 -81.5t65 -50t109.5 -17q61 0 111 19t88.5 53.5t66 82t44.5 105.5q29 103 52.5 205.5t45.5 205.5z" />
    <glyph glyph-name="Uacute" unicode="&#xda;" horiz-adv-x="624" 
d="M537 923q3 20 -16 20h-36l-13 -5q-6 -7 -21.5 -24t-36 -39.5t-43 -47t-41.5 -45.5t-31.5 -36t-13.5 -19q-3 -19 15 -19h20l9 4q8 7 15.5 14t14.5 15h-1q5 5 20 19.5t34.5 34l41.5 41.5t40 40.5t30.5 31.5t12.5 15zM619 665l4 21q0 6 -4.5 12t-10.5 8h-27q-6 -2 -13.5 -8
t-10.5 -12l-32 -152q-15 -69 -30.5 -139t-37.5 -139q-14 -42 -34.5 -78.5t-49.5 -64t-66 -43.5t-83 -16q-51 0 -82 14.5t-47.5 41t-19.5 64t2 83.5q12 107 35.5 214.5t46.5 214.5q0 6 -5 12t-11 8h-27q-6 -2 -13 -8t-10 -12l-6 -27q-21 -102 -41 -203t-34 -203
q-8 -62 -3 -110.5t27.5 -81.5t65 -50t109.5 -17q61 0 111 19t88 53.5t65.5 82t44.5 105.5q30 103 53.5 205.5t45.5 205.5z" />
    <glyph glyph-name="Ucircumflex" unicode="&#xdb;" horiz-adv-x="624" 
d="M624 665l4 21q0 6 -4.5 12t-10.5 8h-27l-6 -3q1 2 2.5 4.5t2.5 4.5q0 3 -9.5 18t-24.5 35t-33.5 43.5t-35 42.5t-29 32t-16.5 13h-55q-6 -5 -24 -19.5t-42.5 -33.5t-51.5 -40t-49.5 -39.5t-38 -32t-16.5 -16.5q-2 -8 2.5 -15t12.5 -7h33l96 74t96 75l130 -149
q5 0 10 -0.5t10 -0.5q10 0 22 5q-6 -3 -10 -11l-32 -152q-15 -69 -31 -139t-37 -139q-13 -42 -34 -78.5t-50 -64t-66 -43.5t-83 -16q-50 0 -81.5 14.5t-47.5 41t-19.5 64t1.5 83.5q13 107 36 214.5t46 214.5q0 6 -5 12t-11 8h-27q-6 -2 -13 -8t-10 -12l-6 -27
q-21 -102 -41 -203t-34 -203q-8 -62 -2.5 -110.5t28 -81.5t65 -50t108.5 -17q61 0 111 19t88.5 53.5t65.5 82t44 105.5q30 103 53.5 205.5t45.5 205.5z" />
    <glyph glyph-name="Udieresis" unicode="&#xdc;" horiz-adv-x="624" 
d="M505 730l10 47q-2 11 -8 16l-7 4h-41q-9 -3 -18 -12l-5 -8l-9 -42l1 -8q5 -9 14 -12h41q5 2 11.5 6.5t10.5 8.5zM340 735l9 43q0 6 -5 12t-11 8h-41l-8 -4q-11 -7 -15 -16l-9 -43q2 -10 8 -16l7 -4h41q6 2 13.5 8t10.5 12zM634 665l5 21q-1 6 -5.5 12t-9.5 8h-27
q-7 -2 -14.5 -8t-9.5 -12l-33 -152q-14 -69 -29.5 -139t-38.5 -139q-13 -42 -34 -78.5t-49.5 -64t-66 -43.5t-83.5 -16q-51 0 -82 14.5t-47 41t-19.5 64t1.5 83.5q13 107 36.5 214.5t46.5 214.5q-1 6 -6 12t-10 8h-27q-7 -2 -14 -8t-9 -12l-6 -27q-22 -102 -42 -203
t-33 -203q-8 -62 -3 -110.5t27.5 -81.5t65 -50t109.5 -17q61 0 111 19t88 53.5t65.5 82t44.5 105.5q30 103 53 205.5t45 205.5z" />
    <glyph glyph-name="germandbls" unicode="&#xdf;" horiz-adv-x="454" 
d="M366 146q11 50 5.5 82.5t-19 54.5t-32 36t-34 27t-24.5 28.5t-4 40.5q5 23 21 37.5t34.5 29.5t36 34t24.5 52q6 28 0 54t-21 45.5t-38 31.5t-51 12q-42 0 -72.5 -13.5t-52 -37.5t-35 -56.5t-21.5 -69.5l-110 -515l3 -9l10 -10h30q6 2 13 8t10 11l110 515q4 20 11.5 41
t20 38t30 28t42.5 11q15 0 27 -8t19.5 -20t10.5 -27t0 -29q-4 -18 -19.5 -31t-34.5 -29t-36.5 -37.5t-24.5 -55.5q-6 -27 -5 -47t8.5 -35.5t20.5 -28.5t32 -27h-1q18 -13 30 -25.5t19 -27.5t8 -34t-5 -44q-8 -40 -39 -66.5t-72 -26.5q-14 0 -26 3.5t-24 8.5t-24 9.5t-25 6.5
l-10 -4q-7 -4 -14 -15l-6 -30q2 -11 8 -17q25 -10 53 -15.5t57 -5.5q34 0 65 11t55.5 30.5t41.5 47.5t24 63z" />
    <glyph glyph-name="agrave" unicode="&#xe0;" horiz-adv-x="448" 
d="M348 551q1 3 -3.5 18.5t-12 38t-16.5 49t-17.5 50.5t-14.5 43.5t-8 27.5l-12 7h-36q-8 0 -15 -5.5t-9 -13.5q0 -2 6 -17.5t15 -38.5t20.5 -50t21.5 -52t17.5 -43.5t10.5 -24.5l11 -7q4 0 7 -0.5t7 -0.5q9 0 17.5 4t10.5 15zM325 19l68 321q9 43 4 71.5t-22.5 45t-47 23
t-69.5 6.5q-19 0 -47.5 -6.5t-55.5 -15t-46 -15l-19 -6.5l-8 -12l-3 -15q-2 -10 -2.5 -23.5t13.5 -13.5q3 0 19 7.5t38.5 17t48.5 17t50 7.5q48 0 71.5 -18t12.5 -70l-8 -40q-43 0 -95 -1.5t-100 -15.5t-85 -46t-50 -93q-7 -33 -1.5 -61t21 -47.5t41 -30.5t58.5 -11
q92 0 164 74l-10 -49q1 -5 3.5 -8.5t4.5 -6.5l7 -4h21q7 2 14 7.5t10 11.5zM315 251l-8 -10q-7 -35 -21 -68.5t-36.5 -60.5t-54 -43.5t-73.5 -16.5q-19 0 -32.5 8t-21.5 20.5t-10.5 29t1.5 34.5q6 27 20 45t33 29.5t41.5 17.5t45.5 8q10 1 21.5 0.5t19.5 1.5q20 5 37.5 2.5
t37.5 2.5z" />
    <glyph glyph-name="aacute" unicode="&#xe1;" horiz-adv-x="448" 
d="M427 750q2 8 -3 13t-13 5h-36l-13 -5q-6 -7 -21.5 -24.5t-36 -40t-43 -47t-41 -46t-31 -36t-13.5 -17.5q-2 -8 3 -13.5t13 -5.5h20q10 4 19 13l-2 -2l23 23t38.5 39t45.5 46t44 45t33 35.5t14 17.5zM327 19l68 321q9 43 4 71.5t-23 45t-47.5 23t-69.5 6.5
q-19 0 -47.5 -6.5t-55 -15t-45.5 -15l-19 -6.5l-8 -12l-4 -15q-2 -10 -2 -24q0 -13 14 -13q3 0 19 7.5t38.5 17t48.5 17t50 7.5q48 0 71.5 -18t12.5 -70l-8 -40q-43 0 -95 -1.5t-100 -15.5t-85 -46t-50 -93q-7 -33 -1.5 -61t21 -47.5t41 -30.5t58.5 -11q45 0 86.5 19
t76.5 55l-9 -49q1 -5 3.5 -8.5t4.5 -6.5l7 -4h21q6 2 13 7.5t11 11.5zM316 251l-7 -10q-7 -35 -21 -68.5t-36.5 -60.5t-54 -43.5t-73.5 -16.5q-19 0 -32.5 8t-21.5 20.5t-10.5 29t1.5 34.5q6 27 20 45t33 29.5t41.5 17.5t45.5 8q10 1 21.5 0.5t19.5 1.5q20 5 37.5 2.5
t36.5 2.5z" />
    <glyph glyph-name="acircumflex" unicode="&#xe2;" horiz-adv-x="515" 
d="M510 553q0 2 -9.5 17t-24.5 35.5t-33 44t-34.5 43.5t-29.5 33t-17 13h-54l-213 -171q-2 -2 -5.5 -7.5t-3.5 -7.5q-4 -19 16 -19h31q48 38 96.5 75.5t96.5 75.5l129 -151h12q4 0 11 0.5t13.5 2.5t11.5 5.5t7 10.5zM342 15l69 325q9 43 4 71.5t-22.5 45t-47 23t-69.5 6.5
q-38 0 -83.5 -10t-81.5 -33l-8 -12l-3 -15q-1 -5 -2 -11t-0.5 -12t3 -10t9.5 -4q2 0 17.5 7.5t38 17t48.5 17t50 7.5t42 -4t29.5 -14t15.5 -27t-2 -43l-8 -40q-43 0 -95 -1.5t-100 -15.5t-84.5 -46t-49.5 -93q-14 -67 18.5 -108.5t99.5 -41.5q43 0 86 19t76 53l-10 -47l2 -7
q5 -9 13 -12h24l9 4zM327 245q-7 -34 -22 -68.5t-37.5 -62t-54 -45t-71.5 -17.5q-19 0 -32.5 8t-21.5 20.5t-10.5 29t1.5 34.5q7 33 26 53t44.5 31t54.5 14.5t55 3.5h34t34 -1z" />
    <glyph glyph-name="atilde" unicode="&#xe3;" horiz-adv-x="482" 
d="M502 646l-2 9l1 2q-3 9 -5.5 16t-14.5 7q-5 0 -9.5 -3.5t-8.5 -7.5l2 1q-15 -14 -32.5 -24t-36.5 -10q-21 0 -40 7t-37.5 16t-38.5 16t-44 7q-32 0 -65 -17.5t-58 -40.5l-4 -16q2 -9 9 -17t12 -14q6 0 13.5 6l12.5 10v-1q15 11 32.5 21.5t35.5 10.5q21 0 39 -7t36 -15h-1
q20 -8 41 -15.5t45 -7.5q29 0 60.5 16t54.5 38zM336 19l68 321q9 43 4 71.5t-23 45t-47.5 23t-69.5 6.5q-19 0 -47.5 -6.5t-55 -15t-45.5 -15l-19 -6.5l-8 -12l-3 -15q-2 -10 -2.5 -23.5t13.5 -13.5q3 0 19 7.5t38.5 17t48.5 17t50 7.5q48 0 71.5 -18t12.5 -70l-8 -40
q-43 0 -95 -1.5t-100 -15.5t-85 -46t-50 -93q-7 -33 -1.5 -61t21 -47.5t41 -30.5t58.5 -11q92 0 164 74l-10 -49q1 -5 3.5 -8.5t4.5 -6.5l7 -4h21q7 2 13.5 7.5t10.5 11.5zM326 251l-8 -10q-7 -35 -21 -68.5t-36.5 -60.5t-54 -43.5t-73.5 -16.5q-19 0 -32.5 8t-21.5 20.5
t-10.5 29t1.5 34.5q6 27 20 45t33 29.5t41.5 17.5t45.5 8q10 1 21.5 0.5t19.5 1.5q20 5 37.5 2.5t37.5 2.5z" />
    <glyph glyph-name="adieresis" unicode="&#xe4;" horiz-adv-x="448" 
d="M404 568l9 42l-3 10l-10 9h-45l-8 -3q-8 -5 -15 -16l-9 -42q1 -6 6 -12t10 -8h41q7 2 14.5 8t9.5 12zM236 563l11 48l-2 8l-6 8l-7 3h-42l-9 -3q-9 -6 -14 -16l-10 -43q1 -6 5.5 -12t9.5 -8h43l9 4zM342 19l68 321q9 43 4 71.5t-23 45t-47.5 23t-69.5 6.5
q-19 0 -47.5 -6.5t-55 -15t-45.5 -15l-19 -6.5l-9 -12l-3 -15q-2 -10 -2.5 -23.5t13.5 -13.5q3 0 19 7.5t39 17t49 17t50 7.5q48 0 71.5 -18t12.5 -70l-9 -40q-43 0 -95 -1.5t-100 -15.5t-85 -46t-50 -93q-7 -33 -1.5 -61t21 -47.5t41 -30.5t58.5 -11q45 0 87 19t77 55
l-9 -49q0 -5 2.5 -8.5t5.5 -6.5l7 -4h21q6 2 13 7.5t11 11.5zM331 251l-7 -10q-8 -35 -21.5 -68.5t-36 -60.5t-54 -43.5t-73.5 -16.5q-19 0 -32.5 8t-22 20.5t-11 29t1.5 34.5q6 27 20 45t33 29.5t42 17.5t46 8q10 1 21 0.5t20 1.5q19 5 37 2.5t37 2.5z" />
    <glyph glyph-name="aring" unicode="&#xe5;" horiz-adv-x="448" 
d="M383 575q8 38 -12.5 62.5t-57.5 24.5t-67.5 -25t-38.5 -62q-8 -38 12 -63t58 -25q18 0 35.5 7t31.5 19t24.5 28t14.5 34zM341 587q1 -9 -4 -17.5t-13 -15.5t-18 -11t-19 -2q-13 2 -20 11t-4 23q2 14 14 23t26 11t25 -3t13 -19zM338 19l69 321q9 43 4 71.5t-23 45
t-47.5 23t-69.5 6.5q-19 0 -47.5 -6.5t-55.5 -15t-46 -15l-19 -6.5l-8 -12l-3 -15q-2 -10 -2.5 -23.5t13.5 -13.5q3 0 19 7.5t38.5 17t48.5 17t50 7.5q47 0 71 -18t14 -70l-9 -40q-43 0 -95 -1.5t-100 -15.5t-85 -46t-50 -93q-7 -33 -1.5 -61t21 -47.5t41 -30.5t58.5 -11
q45 0 87 19t77 55l-10 -49q1 -5 3.5 -8.5t4.5 -6.5l7 -4h21q7 2 14 7.5t10 11.5zM328 251l-7 -10q-8 -35 -22 -68.5t-36.5 -60.5t-54 -43.5t-73.5 -16.5q-19 0 -32.5 8t-21.5 20.5t-10.5 29t1.5 34.5q6 27 20 45t33 29.5t41.5 17.5t45.5 8q10 1 21.5 0.5t20.5 1.5
q19 5 36.5 2.5t37.5 2.5z" />
    <glyph glyph-name="ae" unicode="&#xe6;" horiz-adv-x="800" 
d="M761 295q9 43 3.5 78.5t-24.5 61t-51.5 39.5t-75.5 14q-50 0 -98 -20t-89 -58q-14 37 -50.5 57.5t-78.5 20.5t-89 -15t-86 -39l-8 -11l-4 -16q-2 -10 -1 -19.5t14 -8.5q41 17 79.5 34t81.5 17q46 0 68 -21t11 -69l-8 -39q-43 4 -95 1.5t-99 -18.5t-83.5 -49.5
t-48.5 -91.5q-14 -66 17 -107.5t97 -41.5q57 0 110.5 30t88.5 81q19 -55 65 -83t108 -28q38 0 83.5 10t83.5 30l7 11q1 6 3 14.5t2 16.5q0 9 -3 14.5t-12 5.5q-14 -9 -34 -17t-41 -14t-41 -9.5t-35 -3.5q-40 0 -67.5 14t-43 38.5t-19 57.5t4.5 71l2 10q82 0 164 0.5t165 4.5
l19 15l4 16zM698 304q-70 -2 -139.5 -3.5t-139.5 -1.5q10 27 29.5 51t44 41.5t52.5 28t55 10.5q28 0 48 -9.5t32 -26.5t16.5 -40t1.5 -50zM341 245q-9 -35 -23.5 -69.5t-36 -62t-52.5 -44.5t-73 -17q-38 0 -55 27t-9 64q7 33 26.5 53.5t45 31.5t54.5 15t55 4q17 0 34 -0.5
t34 -1.5z" />
    <glyph glyph-name="ccedilla" unicode="&#xe7;" horiz-adv-x="479" 
d="M413 63q2 10 1.5 19t-9.5 14q-5 0 -22.5 -7t-41 -15t-49.5 -15t-49 -7q-44 0 -70 17t-38.5 44.5t-13 63.5t7.5 74t24 70.5t40.5 56.5t57 38t73.5 14q19 0 37.5 -5t36 -11t31.5 -11t24 -5q8 0 14 5.5t8 13.5l7 33l-5 12q-32 14 -68 20t-73 6q-56 0 -100.5 -17t-78.5 -48.5
t-57 -75t-34 -96.5q-11 -49 -10.5 -93t16 -78t47 -56t84.5 -28q-10 -14 -13 -31q-3 -16 9 -25t28 -15.5t29 -12t11 -14.5q-3 -14 -16.5 -17.5t-23.5 -3.5q-23 0 -38 11t-23 11q-19 0 -22 -19l-7 -30l4 -13q15 -10 34.5 -14t39.5 -4q19 0 38.5 4.5t36 14t28 25t16.5 37.5
q3 16 -1 28t-13 21.5t-21.5 16t-24.5 10.5v-1q-5 2 -11.5 4.5t-11.5 4.5l6 11q35 3 72.5 12t70.5 25l9 13z" />
    <glyph glyph-name="egrave" unicode="&#xe8;" horiz-adv-x="492" 
d="M374 551q1 3 -3.5 19t-11.5 39t-16 50l-17 51t-14.5 42.5t-8.5 25.5l-12 7h-36q-8 0 -15.5 -5t-9.5 -14q0 -2 6 -17.5t15 -38.5t20.5 -50t21.5 -52t17.5 -43.5t10.5 -24.5l11 -7q4 0 7 -0.5t7 -0.5q9 0 17.5 4t10.5 15zM418 255q10 46 10 88t-14 74.5t-45.5 51.5
t-84.5 19t-97.5 -17t-78.5 -47.5t-57 -73.5t-34 -94q-12 -57 -11.5 -105t18.5 -83t56.5 -54.5t101.5 -19.5q38 0 83 10t82 30l9 11l3 15q2 10 2.5 23t-13.5 13q-3 0 -19 -7t-38.5 -15t-48 -15t-48.5 -7q-41 0 -67 13.5t-39.5 37.5t-16 56t3.5 69q81 0 162 2.5t162 5.5
q5 4 10.5 9t8.5 10zM362 294q-62 -5 -122.5 -6t-121.5 -1h-31q9 32 27 58.5t42.5 45t54 29t61.5 10.5q29 0 48 -11.5t29.5 -30.5t13 -43.5t-0.5 -50.5z" />
    <glyph glyph-name="eacute" unicode="&#xe9;" horiz-adv-x="492" 
d="M459 750q2 8 -2.5 13t-12.5 5h-37l-12 -6q-5 -6 -21 -22.5t-36.5 -39t-43 -47.5t-41.5 -46.5t-31.5 -36.5t-13.5 -18q-3 -19 15 -19h20l9 4q6 6 24 23t41 40t47.5 48t45.5 46.5t35 37t14 18.5zM420 255q10 46 10 88t-14.5 74.5t-45.5 51.5t-84 19t-97.5 -17t-78.5 -47.5
t-57.5 -73.5t-34.5 -94q-12 -57 -11 -105t19 -83t56.5 -54.5t101.5 -19.5q38 0 83 10t82 30l9 11l3 15q2 10 2 23t-14 13q-3 0 -18.5 -7t-38 -15t-48 -15t-48.5 -7q-41 0 -67 13.5t-40 37.5t-16.5 56t3.5 69q81 0 162 2.5t163 5.5q5 4 10.5 9t8.5 10zM364 294
q-62 -5 -122.5 -6t-121.5 -1h-31q18 65 68.5 104t115.5 39q29 0 48 -11.5t29.5 -30.5t13.5 -43.5t0 -50.5z" />
    <glyph glyph-name="ecircumflex" unicode="&#xea;" horiz-adv-x="524" 
d="M519 553q0 2 -9.5 17t-24.5 35.5t-33 44t-34.5 43.5t-29.5 33t-17 13h-50l-8 -3q-6 -5 -24 -19t-42 -33t-50.5 -40t-49 -39.5t-37.5 -32t-16 -16.5q-2 -8 2.5 -15t12.5 -7h32q49 38 97 75.5t97 75.5l128 -151h12q4 0 11 0.5t14 2.5t12 5.5t7 10.5zM423 255q10 46 10 88
t-14.5 74.5t-45.5 51.5t-84 19t-97.5 -17t-78.5 -48t-57.5 -73.5t-33.5 -93.5q-12 -57 -11.5 -105t18.5 -83t56.5 -54.5t101.5 -19.5q38 0 83 10t81 30l9 11l3 15q1 4 2 10.5t0.5 12t-3 9.5t-9.5 4q-3 0 -19 -7t-38.5 -15t-48.5 -15t-48 -7q-41 0 -67 13.5t-39.5 37.5
t-16.5 56t3 69q81 0 161.5 2.5t162.5 5.5q5 3 11.5 8.5t8.5 10.5zM368 294q-63 -5 -123.5 -6t-121.5 -1h-31q20 63 69.5 103t114.5 40q29 0 48 -11.5t29.5 -30.5t14 -43.5t0.5 -50.5z" />
    <glyph glyph-name="edieresis" unicode="&#xeb;" horiz-adv-x="492" 
d="M426 568l9 42q0 5 -2.5 9t-5.5 7l-8 3h-41l-8 -3q-8 -5 -15 -16l-9 -42q2 -10 8 -16l7 -4h41q7 2 14.5 8t9.5 12zM260 568l10 43q-2 10 -8 16l-7 3h-43l-8 -3q-9 -6 -14 -16l-10 -43q2 -6 5.5 -12t8.5 -8h43l9 4q9 6 14 16zM435 255q10 46 10 88t-14.5 74.5t-46 51.5
t-84.5 19t-97.5 -17t-78.5 -47.5t-57 -73.5t-34 -94q-12 -57 -11.5 -105t19 -83t56.5 -54.5t101 -19.5q38 0 83 10t83 30l8 11l3 15q2 10 2.5 23t-13.5 13q-3 0 -18.5 -7t-38 -15t-48 -15t-48.5 -7q-41 0 -67 13.5t-40 37.5t-16.5 56t3.5 69q81 0 162 2.5t163 5.5q5 4 10 9
t9 10zM378 294q-61 -5 -121.5 -6t-121.5 -1h-31q18 65 68.5 104t115.5 39q29 0 48 -11.5t29.5 -30.5t13.5 -43.5t-1 -50.5z" />
    <glyph glyph-name="igrave" unicode="&#xec;" horiz-adv-x="272" 
d="M265 551q0 3 -4.5 19t-11.5 38.5t-16 49.5l-17 51t-14.5 43t-8.5 26l-12 7h-36q-8 0 -15.5 -5t-9.5 -14q0 -2 6 -17.5t15 -38.5t20.5 -50t21.5 -52t17.5 -43.5t10.5 -24.5l11 -7q4 0 7.5 -0.5t7.5 -0.5q9 0 17.5 4t10.5 15zM100 19l94 443q-1 5 -3.5 9t-5.5 7l-7 3h-25
l-9 -3q-9 -6 -14 -16l-94 -443q0 -5 2.5 -8.5t4.5 -6.5l8 -4h25q6 2 13 7.5t11 11.5z" />
    <glyph glyph-name="iacute" unicode="&#xed;" horiz-adv-x="293" 
d="M329 750q3 18 -15 18h-37l-12 -5q-6 -7 -21.5 -24t-36 -39.5t-43 -47t-41.5 -45.5t-31.5 -36.5t-13.5 -18.5q-2 -8 3 -13.5t13 -5.5h17q6 3 24 19.5t42 39.5t50.5 50t49 50t37.5 39t15 19zM91 15l95 447q-2 10 -8 16l-7 3h-25l-9 -3q-11 -7 -15 -16l-95 -443l4 -9l9 -10
h29l9 4z" />
    <glyph glyph-name="icircumflex" unicode="&#xee;" horiz-adv-x="515" 
d="M509 553q1 3 -7.5 16t-22.5 31.5t-30.5 39.5t-31.5 40t-27.5 33.5t-16.5 20.5v-1q-2 2 -6 4t-6 2h-54l-214 -171q-1 -2 -4.5 -7.5t-4.5 -7.5q-2 -10 3 -14.5t14 -4.5h31q49 38 97 75.5t96 75.5l129 -151h11q4 0 11 0.5t14 2.5t12 5.5t7 10.5zM195 15l95 447q-1 5 -3.5 9
t-5.5 7l-7 3h-25l-9 -3q-9 -6 -14 -16l-95 -443q1 -5 4.5 -10.5t7.5 -8.5h29q5 2 12 6.5t11 8.5z" />
    <glyph glyph-name="idieresis" unicode="&#xef;" horiz-adv-x="331" 
d="M342 563l10 47q-1 5 -3.5 9t-5.5 7l-7 3h-41l-9 -3l-10 -8l-4 -8l-9 -42l2 -10l10 -10h45q5 2 11.5 6.5t10.5 8.5zM174 563l10 48l-1 8l-7 8l-7 3h-41l-9 -3q-9 -6 -14 -16l-9 -43q0 -6 5 -12t11 -8h41l8 4zM131 19l94 443l-3 10l-9 9h-30l-8 -3q-8 -5 -15 -16l-94 -443
q1 -6 5.5 -11.5t10.5 -7.5h26q6 2 13 8t10 11z" />
    <glyph glyph-name="eth" unicode="&#xf0;" horiz-adv-x="164" 
d="M120 14l10 46l-3 10l-10 9h-49q-11 -4 -18 -11l-6 -8l-10 -46l3 -10l10 -10h49q6 2 14 8t10 12z" />
    <glyph glyph-name="ntilde" unicode="&#xf1;" horiz-adv-x="494" 
d="M514 649q-2 9 -5 20t-16 11q-10 0 -17 -11l1 1q-15 -14 -32.5 -24t-37.5 -10q-22 0 -41 7t-38 16t-39 16t-43 7q-31 0 -64.5 -17.5t-58.5 -40.5l-3 -16q1 -8 7.5 -16.5t11.5 -14.5q7 0 14.5 5.5t13.5 10.5l-1 -1q16 11 33 21.5t35 10.5q21 0 39.5 -7t38 -15.5t39.5 -15.5
t44 -7q29 0 60.5 16t54.5 38zM376 15l63 299q10 45 3 77.5t-28 53.5t-54.5 31t-75.5 10t-83.5 -16t-76.5 -46l7 42l-10 12l-6 3h-21l-8 -3q-11 -7 -15 -16l-94 -443q0 -5 3.5 -10.5t8.5 -8.5h28q6 2 13 7.5t11 11.5l64 304q5 23 24 42t44.5 33t52 22t46.5 8q27 0 49 -7
t36.5 -21.5t20 -36t-0.5 -49.5l-62 -295q1 -6 5.5 -11.5t10.5 -7.5h24l8 4z" />
    <glyph glyph-name="ograve" unicode="&#xf2;" horiz-adv-x="543" 
d="M392 551q1 3 -3.5 18.5t-12 38t-16.5 49t-17.5 50.5t-14.5 43.5t-8 27.5l-11 7h-37q-8 0 -14.5 -5.5t-8.5 -13.5q0 -2 6 -17.5t15 -38.5t20 -50t21 -52t17.5 -43.5t10.5 -24.5l11 -7q4 0 7 -0.5t7 -0.5q9 0 17.5 4t10.5 15zM466 243q12 57 9 102t-23.5 77t-59.5 49
t-99 17q-119 0 -186.5 -66t-91.5 -179q-12 -54 -7.5 -99.5t26 -79t60 -52t95.5 -18.5t103 19t81 52t58 78.5t35 99.5zM404 253q-9 -40 -25 -76.5t-40.5 -64t-59 -44t-79.5 -16.5q-42 0 -69.5 15.5t-42 41.5t-16.5 61t6 73q9 40 25.5 74.5t41.5 59.5t59 39t78 14
q45 0 73 -12.5t41.5 -35.5t15 -55.5t-7.5 -73.5z" />
    <glyph glyph-name="oacute" unicode="&#xf3;" horiz-adv-x="543" 
d="M483 750q2 8 -2.5 13t-12.5 5h-37l-12 -6q-5 -6 -21 -22.5t-36.5 -39t-43 -48t-41.5 -46.5t-31.5 -36.5t-13.5 -17.5q-3 -19 16 -19h20q11 4 20 13l-2 -2q6 6 23 22.5t38.5 38.5t45 46.5t43.5 45.5t33 35.5t14 17.5zM468 243q12 57 9 102t-23.5 77t-59.5 49t-99 17
q-119 0 -186.5 -66t-91.5 -179q-12 -54 -7.5 -99.5t26 -79t60 -52t95.5 -18.5t103 19t81 52t58 78.5t35 99.5zM406 253q-9 -40 -25 -76.5t-40.5 -64t-59 -44t-79.5 -16.5q-42 0 -69.5 15.5t-42 41.5t-16.5 61t6 73q8 40 24.5 74.5t41.5 59.5t59 39t78 14q45 0 73 -12.5
t42 -35.5t15.5 -55.5t-7.5 -73.5z" />
    <glyph glyph-name="ocircumflex" unicode="&#xf4;" horiz-adv-x="543" 
d="M511 553q0 2 -9.5 17t-24.5 35.5t-33 44t-34.5 43.5t-29 33t-16.5 13h-56l-213 -171q-2 -2 -5 -7.5t-3 -7.5q-4 -19 15 -19h32l96 74t96 76l130 -150h11q4 0 11 0.5t14 2.5t12 5.5t7 10.5zM471 243q12 56 9 101.5t-23.5 77.5t-59 49t-98.5 17q-119 0 -186.5 -66
t-91.5 -179q-12 -54 -7.5 -99.5t25.5 -78.5t59.5 -52t95.5 -19t103 19t81 52t58 78.5t35 99.5zM408 243q-8 -38 -25 -73t-42.5 -61t-59 -41.5t-75.5 -15.5t-69.5 15.5t-42 41.5t-16.5 61t6 73q8 40 24.5 74.5t41.5 59.5t58.5 39t77.5 14q43 0 70.5 -14.5t42 -39.5t16 -59.5
t-6.5 -73.5z" />
    <glyph glyph-name="otilde" unicode="&#xf5;" horiz-adv-x="543" 
d="M528 649q-2 11 -5 21t-16 10q-5 0 -10 -3.5t-8 -7.5l2 1q-15 -14 -33 -24t-38 -10q-21 0 -40 7t-38 16t-38.5 16t-43.5 7q-31 0 -64.5 -17.5t-57.5 -40.5l-4 -20l10 -20l8 -5l10 1l9 4q15 14 36 27t41 13q21 0 39.5 -7t37.5 -15.5t39 -15.5t44 -7q29 0 61 16t55 38z
M477 243q12 57 9 102t-23.5 77t-59.5 49t-99 17q-119 0 -186.5 -66t-91.5 -179q-12 -54 -7.5 -99.5t26 -79t60 -52t95.5 -18.5t103 19t81 52t58 78.5t35 99.5zM415 253q-9 -40 -25 -76.5t-40.5 -64t-59 -44t-79.5 -16.5q-42 0 -69.5 15.5t-42 41.5t-16.5 61t6 73
q9 40 25.5 74.5t41.5 59.5t59 39t78 14q45 0 73 -12.5t41.5 -35.5t15 -55.5t-7.5 -73.5z" />
    <glyph glyph-name="odieresis" unicode="&#xf6;" horiz-adv-x="543" 
d="M444 563l10 47q0 5 -2.5 9t-5.5 7l-7 3h-42l-8 -3q-8 -5 -15 -16l-9 -42l2 -10l10 -10h46q5 2 11 6.5t10 8.5zM278 564l10 47q-2 10 -8 16l-7 3h-42l-9 -3q-11 -7 -15 -16l-10 -43l3 -10l10 -10h46l9 4zM482 243q12 57 9 102t-23.5 77t-59.5 49t-99 17q-119 0 -186.5 -66
t-91.5 -179q-11 -54 -6.5 -99.5t25.5 -79t59.5 -52t95.5 -18.5t103 19t81 52t58.5 78.5t34.5 99.5zM420 253q-8 -40 -24 -76.5t-41 -64t-59 -44t-79 -16.5q-42 0 -69.5 15.5t-42 41.5t-17 61t5.5 73q9 40 25.5 74.5t41.5 59.5t59 39t78 14q45 0 73 -12.5t42 -35.5t15 -55.5
t-8 -73.5z" />
    <glyph glyph-name="divide" unicode="&#xf7;" horiz-adv-x="409" 
d="M265 458l10 47q-1 6 -5.5 11.5t-10.5 7.5h-45q-6 -2 -13 -7.5t-11 -11.5l-10 -47l3 -9l10 -9h49q7 2 13 7t10 11zM361 346l6 28l-1 8q-6 9 -14 12h-284l-8 -4l-9 -8l-5 -8l-5 -23l2 -8l6 -8l7 -3h284l9 3zM213 219l11 51q-1 5 -3.5 8.5t-4.5 6.5l-7 4h-45q-6 -2 -13 -7.5
t-11 -11.5l-10 -47l3 -9l10 -10h49l9 4z" />
    <glyph glyph-name="oslash" unicode="&#xf8;" horiz-adv-x="543" 
d="M497 243q5 22 7.5 46.5t1.5 48.5t-6.5 45.5t-17.5 38.5q4 3 10 8.5t12 12t11 12.5t6 11q3 18 -15 18h-28l-10 -4l-21 -23q-26 16 -58 23.5t-64 7.5q-59 0 -105.5 -17t-81 -49t-57.5 -77t-35 -102q-5 -21 -7 -45t-0.5 -47.5t7.5 -44.5t17 -37q-3 -3 -9.5 -10t-14 -15.5
t-13.5 -15.5t-6 -10q-2 -8 2 -13t12 -5h28l12 6l22 21h-1l3 3q53 -36 122 -36q57 0 103 19t81 52.5t58.5 79t34.5 98.5zM436 253q-9 -40 -25 -76.5t-40.5 -64t-59 -44t-79.5 -16.5q-42 0 -69.5 15.5t-42 41.5t-17 61t5.5 73q9 40 25.5 74.5t41.5 59.5t59 39t78 14
q45 0 73 -12.5t42 -35.5t15.5 -55.5t-7.5 -73.5z" />
    <glyph glyph-name="ugrave" unicode="&#xf9;" horiz-adv-x="483" 
d="M367 551q1 3 -3.5 19t-11.5 39t-16 50l-17 51t-14.5 42.5t-8.5 25.5l-12 7h-36q-8 0 -15.5 -5t-9.5 -14q0 -2 6 -17.5t15 -38.5t20.5 -50t21.5 -52t18 -43.5t10 -24.5l11 -7q4 0 7 -0.5t7 -0.5q9 0 17.5 4t10.5 15zM359 19l94 443q0 9 -7 16l-8 3h-25l-8 -3
q-8 -5 -15 -16l-27 -128q-7 -32 -14 -64.5t-14 -64.5q-7 -31 -25 -59t-43.5 -49t-56 -33t-61.5 -12q-32 0 -51 12t-28 32t-9 46t6 53q14 68 29 135t30 135q2 6 -1.5 11t-10.5 5h-28l-8 -3l-14 -12q-16 -68 -31 -135.5t-29 -135.5q-9 -43 -7 -80t17.5 -64t45.5 -42t77 -15
q46 0 90.5 19t80.5 56l-10 -50q2 -6 6.5 -11.5t9.5 -7.5h22l9 4q4 3 8 6.5t6 8.5z" />
    <glyph glyph-name="uacute" unicode="&#xfa;" horiz-adv-x="483" 
d="M450 750q2 8 -3 13t-13 5h-37l-12 -5q-6 -7 -22 -24t-36.5 -39.5t-42.5 -47t-41 -45.5t-31.5 -36.5t-13.5 -18.5q-3 -19 15 -19h20l9 4q6 6 24 23t41 40l48 48t46 46.5t35 37t14 18.5zM361 19l94 443q-2 11 -7 16l-8 3h-25l-8 -3q-11 -7 -15 -16l-27 -128
q-7 -32 -14 -64.5t-14 -64.5q-7 -31 -25 -59t-43.5 -49t-56 -33t-61.5 -12q-32 0 -51 12t-28 32t-9.5 46t5.5 53l60 270q2 6 -1.5 11t-10.5 5h-28l-8 -3l-14 -12q-16 -68 -31 -135.5t-30 -135.5q-9 -43 -6.5 -80t18 -64t45.5 -42t77 -15q46 0 90.5 19t80.5 56l-10 -50
q1 -6 5.5 -11.5t10.5 -7.5h22l9 4q4 3 8 6.5t6 8.5z" />
    <glyph glyph-name="ucircumflex" unicode="&#xfb;" horiz-adv-x="514" 
d="M509 553q0 3 -8.5 16t-22.5 31.5t-30.5 40t-31.5 41t-27 34.5l-16 20q-2 2 -5.5 2.5t-5.5 0.5h-54l-213 -171q-2 -2 -5.5 -7.5t-3.5 -7.5q-4 -19 16 -19h31q48 38 96.5 75.5t96.5 75.5l128 -151h12q4 0 11 0.5t13.5 2.5t11.5 5.5t7 10.5zM367 19l94 443q0 5 -2.5 9
t-5.5 7l-8 3h-24l-8 -3q-8 -5 -15 -16l-27 -128q-7 -32 -14 -64.5t-14 -64.5q-7 -31 -25 -59t-43.5 -49t-56 -33t-61.5 -12q-32 0 -51 12t-28 32t-9 46t6 53q11 55 25.5 109.5t25.5 109.5q1 7 4.5 18.5t4 22t-2.5 18.5t-13 8h-26l-7 -3l-14 -12q-16 -68 -31 -135.5
t-29 -135.5q-9 -43 -7 -80t17.5 -64t45.5 -42t77 -15t90.5 19t80.5 56l-9 -50q1 -5 3.5 -8.5t4.5 -6.5l7 -4h21q7 2 13.5 7.5t10.5 11.5z" />
    <glyph glyph-name="udieresis" unicode="&#xfc;" horiz-adv-x="483" 
d="M413 563l10 47q0 9 -7 16l-7 3h-42l-8 -3q-8 -5 -15 -16l-9 -42q2 -10 8 -16l7 -4h42q5 2 11 6.5t10 8.5zM248 563l11 48q-2 10 -8 16l-7 3h-42l-9 -3q-11 -7 -15 -16l-10 -43q1 -6 6 -12t10 -8h42q5 2 11.5 6.5t10.5 8.5zM376 19l94 443q-2 10 -8 16l-7 3h-25l-9 -3
q-9 -6 -14 -16l-27 -128q-7 -32 -14.5 -64.5t-14.5 -64.5q-6 -31 -24 -59t-43.5 -49t-56 -33t-61.5 -12q-32 0 -51 12t-28 32t-9.5 46t5.5 53q28 135 60 270q1 6 -2 11t-10 5h-28l-9 -3l-13 -12q-16 -68 -31.5 -135.5t-29.5 -135.5q-9 -43 -7 -80t18 -64t45.5 -42t76.5 -15
q46 0 91 19t80 56l-9 -50q1 -6 5.5 -11.5t10.5 -7.5h22l9 4q3 3 7 6.5t7 8.5z" />
    <glyph glyph-name="ydieresis" unicode="&#xff;" horiz-adv-x="546" 
d="M464 568l9 42q-2 10 -8 16l-7 3h-42l-8 -3q-11 -7 -15 -16l-9 -42q2 -10 8 -16l7 -4h42q7 2 13.5 8t9.5 12zM296 563l10 48q0 9 -7 16l-8 3h-42l-8 -3q-10 -6 -16 -16l-9 -43q0 -6 5 -12t11 -8h42q5 2 11.5 6.5t10.5 8.5zM552 465q2 8 -3 12t-12 4h-33l-15 -7l-122 -190
t-125 -189l-79 379l-11 7l-24 1q-9 0 -18.5 -3.5t-11.5 -14.5q-1 -3 5 -33.5t15 -76t20 -99t21 -102t17.5 -85.5t10.5 -49q-6 -12 -26.5 -41t-43 -61t-40.5 -59t-19 -34q-2 -8 4 -12t13 -4h32l13 6q10 16 34 51.5t56 82.5t69.5 103t75.5 112t73 108.5t62.5 94t44 68.5
t17.5 31z" />
    <glyph glyph-name="OE" unicode="&#x152;" horiz-adv-x="1034" 
d="M907 16q1 7 3 14.5t2 14.5t-3 12.5t-11 8.5q-29 -2 -56 -3.5t-55 -1.5q-38 0 -75 0.5t-75 0.5l58 273h133q7 0 21.5 -1.5t29.5 -1.5t26.5 4t14.5 15l5 26q-2 11 -7 16l-8 3h-202l53 249h128q31 0 60.5 -2t60.5 -2q9 0 15.5 5t8.5 14l6 26q0 6 -5 12t-11 8h-296
q-6 -2 -13 -8t-10 -12l-18 -84q-16 33 -40 54t-54.5 33.5t-65.5 17t-73 4.5q-84 0 -150.5 -25t-116 -70.5t-82 -110.5t-49.5 -145q-17 -77 -11.5 -143.5t35.5 -116t84.5 -78t137.5 -28.5q78 0 151.5 31t131.5 97l-22 -103q4 -13 15 -19q77 0 153.5 1t151.5 -4l10 4
q4 3 8 6.5t6 8.5zM636 360q-13 -60 -40 -115.5t-67.5 -98t-94 -68t-120.5 -25.5q-66 0 -109.5 25.5t-66 68t-26 98t9.5 115.5q13 64 39 117.5t65.5 92.5t93 60.5t122.5 21.5t113 -21.5t66.5 -60.5t25 -92.5t-10.5 -117.5z" />
    <glyph glyph-name="oe" unicode="&#x153;" horiz-adv-x="894" 
d="M845 255q10 45 10 87q0 43 -14 75t-45 51.5t-83 19.5q-59 0 -114.5 -22.5t-97.5 -76.5q-21 47 -67.5 73t-102.5 26q-59 0 -105.5 -17t-81 -49t-57.5 -77t-35 -102q-11 -54 -6.5 -99.5t25.5 -79t59.5 -52t95.5 -18.5q61 0 116.5 23.5t97.5 80.5q8 -28 24.5 -48t39.5 -32.5
t50.5 -18t57.5 -5.5q38 0 81 10.5t80 28.5l9 12l5 23q2 10 1 19t-13 9q-2 0 -8 -2.5t-8 -3.5l1 1q-32 -16 -68 -27.5t-68 -11.5q-41 0 -68 13t-41.5 36.5t-17.5 56t3 70.5q81 0 162.5 2t163.5 6l14 12zM791 304q-70 -2 -139.5 -3.5t-139.5 -1.5q10 27 29.5 51t44 41.5
t52.5 28t55 10.5q28 0 48 -9.5t32 -26.5t16.5 -40t1.5 -50zM438 253q-9 -40 -25 -76.5t-40.5 -64t-59 -44t-79.5 -16.5q-42 0 -69.5 15.5t-42 41.5t-17 61t5.5 73q9 40 25.5 74.5t41.5 59.5t59 39t78 14q45 0 73 -12.5t42 -35.5t15.5 -55.5t-7.5 -73.5z" />
    <glyph glyph-name="Scaron" unicode="&#x160;" horiz-adv-x="401" 
d="M373 -56q2 7 -3.5 11.5t-10.5 6.5h-26q-14 -5 -22 -18q-9 -44 -40 -75.5t-78 -31.5q-48 0 -65.5 31t-8.5 76q-2 13 -14 18h-25q-5 -2 -12.5 -6.5t-9.5 -11.5q-16 -75 15.5 -119t107.5 -44q36 0 68 12t57 34t42 51.5t25 65.5z" />
    <glyph glyph-name="Ydieresis" unicode="&#x178;" horiz-adv-x="511" 
d="M444 730l11 48q-2 6 -5.5 12t-8.5 8h-42l-9 -4q-9 -6 -14 -16l-10 -43q2 -10 8 -16l7 -4h42q5 2 11 6.5t10 8.5zM278 730l11 48q-2 10 -8 16l-7 4h-41q-7 -2 -14.5 -8t-9.5 -12l-10 -43q1 -6 6 -12t10 -8h41q5 2 11.5 6.5t10.5 8.5zM528 689q2 8 -4 12.5t-13 4.5h-28
l-13 -8q-56 -81 -111 -162t-111 -163l-76 325l-12 8h-14q-8 0 -16 -1t-15 -5t-8 -11q-1 -4 5 -31t15 -66.5t20.5 -86t22 -89t18.5 -75t11 -43.5l-60 -279q1 -5 3.5 -8.5t4.5 -6.5l7 -4h28q6 2 13 8t10 11l60 281q7 11 29.5 43t51.5 74.5t60.5 89t58.5 86t44.5 66.5t18.5 30z
" />
    <glyph glyph-name="florin" unicode="&#x192;" horiz-adv-x="549" 
d="M582 676q2 8 3 17t3 17l-5 10q-14 9 -32.5 12t-36.5 3q-61 0 -99 -25.5t-62.5 -65t-40.5 -87t-33 -91.5h-32q-12 -6 -18.5 -16.5t-9.5 -22.5q-2 -9 2 -14t10.5 -6.5t14.5 -1t14 0.5l-137 -384q-4 -12 -11 -28t-16.5 -30.5t-22.5 -24t-29 -9.5q-13 0 -27.5 8t-25.5 13
q-8 0 -15 -6t-9 -14l-7 -32l6 -11q14 -9 31 -13t35 -4q29 0 53 13.5t43 35t33.5 47t24.5 49.5q38 97 70 195t67 195h72q15 6 19.5 14.5t7.5 21.5q2 10 -1.5 15.5t-10 8t-15 3t-16.5 0.5q-9 0 -18 -0.5t-18 -1.5q9 27 20.5 63.5t29.5 69t44 55t65 22.5q23 0 43 -15h-1
q8 -6 15 -6q8 0 14.5 6t8.5 14z" />
    <glyph glyph-name="circumflex" unicode="&#x2c6;" horiz-adv-x="515" 
d="M452 553q1 3 -7.5 16t-22 31.5t-30.5 39.5t-32 40t-27 33.5t-16 20.5v-1q-2 2 -6.5 4t-6.5 2h-54l-214 -171q-1 -2 -4.5 -7.5t-4.5 -7.5q-2 -10 3 -14.5t14 -4.5h31q49 38 97 75.5t96 75.5l129 -151h11q4 0 11 0.5t14 2.5t12 5.5t7 10.5z" />
    <glyph glyph-name="tilde" unicode="&#x2dc;" horiz-adv-x="526" 
d="M485 650l-10 24l-10 7q-7 0 -13 -4t-11 -9v1q-17 -14 -36.5 -23.5t-39.5 -9.5q-26 0 -48.5 7t-44 16t-44.5 16t-48 7q-9 0 -31 -6.5t-45 -16.5t-41.5 -22t-20.5 -22q-1 -3 1.5 -8.5t6 -11t7.5 -10.5t6 -8q6 0 17 7.5t24.5 16t30 16t33.5 7.5q25 0 47.5 -7t44.5 -15.5
t44.5 -15.5t48.5 -7q31 0 66.5 15.5t61.5 37.5z" />
    <glyph glyph-name="endash" unicode="&#x2013;" horiz-adv-x="408" 
d="M361 348l5 27l-1 8l-5 8l-8 3h-284l-8 -3l-9 -8l-5 -8l-4 -22l1 -8l5 -8l8 -3h284l8 3z" />
    <glyph glyph-name="emdash" unicode="&#x2014;" horiz-adv-x="703" 
d="M653 353l4 22l-3 10l-10 9h-570l-8 -3q-10 -6 -16 -16l-4 -22l3 -10l10 -9h570l8 3q10 6 16 16z" />
    <glyph glyph-name="quoteleft" unicode="&#x2018;" horiz-adv-x="197" 
d="M178 747q2 8 -3 14t-13 6h-18q-5 -2 -10.5 -6t-10.5 -8q-4 -8 -12.5 -25.5t-20 -39.5t-24 -46t-23 -44t-17.5 -34.5t-7 -16.5q-2 -9 3 -13.5t13 -4.5h37l11 6l8 8q7 19 20.5 47t27 57.5t25 56t14.5 43.5z" />
    <glyph glyph-name="quoteright" unicode="&#x2019;" horiz-adv-x="215" 
d="M197 752q2 8 -3 13.5t-13 5.5h-33q-6 -2 -11.5 -5.5t-10.5 -7.5l-7 -12l-17 -35l1 1q-2 -4 -9 -17t-16.5 -31t-20 -38t-19 -37l-14.5 -29t-6 -13q-2 -8 4 -13t13 -5h20l14 8q33 54 64.5 107.5t63.5 107.5z" />
    <glyph glyph-name="quotesinglbase" unicode="&#x201a;" horiz-adv-x="215" 
d="M197 125q3 19 -16 19h-33q-6 -2 -11.5 -5.5t-10.5 -7.5l-7 -12l-17 -35l1 1q-2 -4 -9 -17t-16.5 -31t-20 -38t-19 -37t-14.5 -28.5t-6 -12.5q-2 -8 3.5 -13.5t13.5 -5.5h20l14 8q3 6 14 23.5t25 41t29.5 49.5t28.5 48t22 37t9 16z" />
    <glyph glyph-name="quotedblleft" unicode="&#x201c;" horiz-adv-x="297" 
d="M276 744q2 8 -2.5 14t-12.5 6h-17q-5 -2 -10.5 -5t-9.5 -7q-2 -4 -11 -20t-21 -39t-25.5 -48t-25 -47t-19 -36.5l-7.5 -14.5q-2 -9 3 -13.5t13 -4.5h36q5 2 10.5 5.5t9.5 8.5q7 19 20.5 47t27.5 56.5t25.5 54.5t15.5 43zM182 744q2 8 -3 14t-13 6h-16q-10 -3 -21 -12
q-2 -4 -11 -20t-21 -38.5t-25 -48t-24.5 -47t-19 -36t-7.5 -15.5q-2 -9 2.5 -13.5t12.5 -4.5h37q11 5 19 14q7 19 21 46.5t28 56t25.5 55t15.5 43.5z" />
    <glyph glyph-name="quotedblright" unicode="&#x201d;" horiz-adv-x="303" 
d="M282 750q5 20 -15 20h-34q-6 -2 -12 -6t-10 -8q-8 -19 -22.5 -48t-30 -59.5t-28.5 -57.5t-16 -43q-2 -9 3.5 -14t13.5 -5h19q12 5 19 12q3 5 12.5 22t22 40t26.5 48.5t25.5 47t19 36t7.5 15.5zM187 750q5 20 -15 20h-34q-6 -2 -11.5 -6t-10.5 -8q-8 -20 -22.5 -49
l-29.5 -59t-28 -57.5t-16 -42.5q-3 -19 16 -19h20q12 5 19 12q3 5 12.5 22.5t22 40t26 48t25 46.5t19 35.5t7.5 16.5z" />
    <glyph glyph-name="quotedblbase" unicode="&#x201e;" horiz-adv-x="303" 
d="M283 121q3 19 -16 19h-34q-6 -2 -11.5 -5.5t-10.5 -7.5q-8 -19 -22.5 -48t-29.5 -59.5t-28 -57.5t-16 -43q-2 -10 2.5 -15t13.5 -5h19q5 2 10.5 5.5t9.5 8.5q3 7 13 25t22 40.5t26 47t25 45t18.5 34.5t8.5 16zM188 121q3 19 -16 19h-34q-6 -2 -11.5 -5.5t-10.5 -7.5
q-8 -20 -22.5 -49l-29.5 -59t-27.5 -57.5t-15.5 -42.5q-5 -20 15 -20h20q5 2 10.5 5.5t9.5 8.5q4 7 13.5 25t22 40t25.5 46.5t24.5 45.5t18.5 35z" />
    <glyph glyph-name="dagger" unicode="&#x2020;" horiz-adv-x="413" 
d="M397 510l5 22l-2 9l-10 10h-118l40 188q-4 13 -15 19h-27q-7 -2 -13.5 -7.5t-10.5 -11.5l-40 -188h-106q-10 -3 -18 -11l-5 -8l-5 -22l2 -10l10 -10h109l-101 -474l3 -9l10 -10h31q5 2 11 6.5t10 8.5l102 478h115q9 3 18 12z" />
    <glyph glyph-name="daggerdbl" unicode="&#x2021;" horiz-adv-x="656" 
d="M686 611q2 5 -3 11.5t-10 6.5h-26l-9 -3q-9 -6 -14 -15q-9 -44 -40 -75.5t-78 -31.5q-44 0 -62.5 26t-13.5 68l43 86q-2 11 -6 18l-7 4h-30l-19 -13l-310 -633h-69l-20 -12l-11 -27l1 -10l4 -8l7 -4h193l20 14l12 25q0 10 -6 18l-7 4h-58l216 440q17 -28 46.5 -40
t64.5 -12q36 0 68 12t57 34t42 51.5t25 65.5zM419 -56q2 7 -3.5 11.5t-10.5 6.5h-26q-14 -5 -22 -18q-9 -44 -40 -75.5t-78 -31.5q-48 0 -65.5 31t-8.5 76q-2 13 -14 18h-25q-5 -2 -12.5 -6.5t-9.5 -11.5q-15 -74 16.5 -118.5t106.5 -44.5q36 0 68 12t57 34t42 51.5t25 65.5
z" />
    <glyph glyph-name="bullet" unicode="&#x2022;" horiz-adv-x="257" 
d="M216 374q8 37 -12 62.5t-57 25.5q-18 0 -35.5 -7t-32 -19t-24.5 -28t-14 -34q-8 -38 12 -62.5t57 -24.5t67.5 25t38.5 62z" />
    <glyph glyph-name="ellipsis" unicode="&#x2026;" horiz-adv-x="681" 
d="M627 9l11 51l-2 8q-2 3 -5 6t-8 5h-46q-14 -5 -23 -19l-10 -46l3 -10l9 -10h50q5 2 11 6.5t10 8.5zM376 9l11 51l-2 8q-5 8 -14 11h-44q-11 -4 -18 -11l-6 -8l-10 -46l3 -10l10 -10h48q5 2 11.5 6.5t10.5 8.5zM125 9l11 51q-1 6 -5.5 11.5t-9.5 7.5h-46q-15 -5 -22 -19
l-10 -46q1 -6 5.5 -12t9.5 -8h46l9 4z" />
    <glyph glyph-name="perthousand" unicode="&#x2030;" horiz-adv-x="706" 
d="M356 569q13 59 -8.5 92.5t-82.5 33.5q-62 0 -98 -33t-49 -93q-12 -57 10.5 -92.5t82.5 -35.5q57 0 95.5 36.5t49.5 91.5zM597 692q2 8 -2.5 13.5t-12.5 5.5h-31l-13 -6q-11 -14 -41 -50.5t-71.5 -87t-91 -110.5t-99 -121t-96 -118t-82.5 -101.5t-58 -72t-23 -29.5
q-3 -19 16 -19h32l12 6q9 10 38 45t70 85t90.5 111t100 123t97.5 120t83.5 103.5t59 73.5t22.5 29zM608 119q13 59 -8 91.5t-82 32.5q-31 0 -62 -11.5t-52 -40.5q-9 28 -34 40t-56 12q-62 0 -96.5 -32t-47.5 -92q-11 -56 11 -90.5t80 -34.5q32 0 62 14t51 43q9 -29 34 -43
t57 -14q57 0 94.5 35.5t48.5 89.5zM299 569q-6 -29 -25 -51t-51 -22q-33 0 -43.5 21.5t-4.5 51.5q7 32 25.5 51.5t52.5 19.5q32 0 42.5 -20.5t3.5 -50.5zM547 120q-6 -26 -23.5 -46.5t-46.5 -20.5t-38 20.5t-3 46.5q5 27 22.5 45.5t46.5 18.5q30 0 38.5 -18.5t3.5 -45.5z
M343 120q-6 -26 -23.5 -46.5t-46.5 -20.5t-38 20.5t-3 46.5q5 27 22.5 45.5t46.5 18.5t38 -18.5t4 -45.5z" />
    <glyph glyph-name="guilsinglleft" unicode="&#x2039;" horiz-adv-x="300" 
d="M291 514l-1 29q-3 4 -7.5 8t-9.5 6q-4 0 -19.5 -11.5t-37.5 -29t-48 -38.5t-49 -40t-41.5 -34t-25.5 -21l-8 -13l1 2l-4 -12q-1 -3 9 -17.5t25.5 -35.5t34 -44.5t35 -43.5t28.5 -33.5t14 -14.5q16 0 22.5 10t12.5 23l-1 -1l5 10q1 4 0 7.5t-2 6.5q-28 35 -56.5 69.5
t-57.5 68.5l172 136z" />
    <glyph glyph-name="guilsinglright" unicode="&#x203a;" horiz-adv-x="301" 
d="M253 352q0 -1 -1 -1v-1q1 1 1 2zM258 360l2 10q-2 6 -13 22.5t-26.5 37t-33.5 43t-34 41t-27.5 30.5t-13.5 13q-14 -1 -21 -11t-12 -21v1q-1 -2 -2 -3t-1 -3l-2 -10q1 -4 8.5 -14.5t19.5 -25t26 -31t27 -31.5t23 -26.5t15 -16.5l-174 -136l-9 -18l6 -31l11 -8q4 0 22 13
t43 32t52.5 41.5t51.5 42t40 34t17 17.5h1l-0.5 0.5t1.5 0.5l-1 -1q4 4 4 8z" />
    <glyph glyph-name="currency" unicode="&#x20ac;" horiz-adv-x="709" 
d="M601 73q2 10 0.5 18t-13.5 8q-13 0 -38.5 -7t-57 -16t-65.5 -16t-64 -7q-100 0 -156.5 52t-60.5 149h416l9 4q9 6 14 16l5 23q-2 14 -15 19h-426q1 11 3 22t5 22q2 13 5.5 25t6.5 25h426l9 4q4 3 8 6.5t6 8.5l5 23q-2 11 -7 16l-8 4h-416q23 49 54.5 83t70 55.5
t82.5 31.5t92 10q51 0 94 -10.5t88 -26.5l-4 3q2 -1 6 -2.5t6 -1.5q7 0 13.5 5t8.5 13l7 33l-5 12q-45 20 -96.5 27t-105.5 7q-63 0 -119.5 -13t-105.5 -41.5t-87.5 -74t-65.5 -110.5h-33l-8 -4q-11 -7 -15 -16l-5 -23q1 -5 3.5 -8.5t4.5 -6.5l7 -4h23q-7 -23 -11.5 -47
t-8.5 -47h-23q-6 -2 -12.5 -7.5t-10.5 -11.5l-5 -23q2 -10 8 -16l7 -4h32q-3 -131 70 -195.5t203 -64.5q24 0 55 3t62.5 9t62 14.5t54.5 18.5l11 11z" />
    <glyph glyph-name="trademark" unicode="&#x2122;" horiz-adv-x="759" 
d="M673 348l72 338q0 9 -7 16l-7 4h-33l-14 -7q-48 -66 -95 -130.5t-95 -130.5l-87 261l-9 7h-31q-2 -1 -5.5 -8t-7 -16t-7 -17t-4.5 -10q-1 1 0 9t2 17t1.5 16.5t-0.5 8.5h-237l-9 -4q-8 -5 -15 -16q-1 -5 -2.5 -10t-2.5 -10q-5 -24 16 -24q20 0 41.5 1.5t41.5 1.5
l-62 -292q0 -9 7 -16l7 -3h24l9 3q10 6 16 16l62 292q22 1 47 -2.5t47 5.5l-62 -295q0 -5 2.5 -9t5.5 -7l7 -3h25l9 3l7.5 7.5t6.5 8.5l45 214l68 -227l12 -6h16l15 6l165 231l-46 -218q0 -9 7 -16l7 -3h25l9 3z" />
    <glyph glyph-name="notequal" unicode="&#xe000;" horiz-adv-x="408" 
d="M345 273l5 27q1 5 -1.5 8.5t-4.5 6.5l-8 4h-141l38 48l38 48h86q11 4 17 11l5 8l5 22l-2 8l-5 8l-7 4h-52q3 4 12 15.5t19 24.5t18 24t9 15q2 8 -3 12.5t-13 4.5h-29l-12 -6q-17 -23 -35 -45.5t-37 -44.5h-161l-9 -4l-9 -8l-4 -8l-5 -22l1 -8q3 -8 13 -11h128l-38 -48
t-39 -48h-72l-8 -4q-4 -3 -8 -6.5t-6 -8.5l-4 -23q-1 -5 1.5 -8.5t4.5 -6.5l7 -4h38q-6 -7 -15.5 -18t-19.5 -23.5t-17.5 -24.5t-9.5 -19q-2 -8 3.5 -12.5t12.5 -4.5h30l13 5q20 24 37.5 48.5t36.5 48.5h175l9 4z" />
    <glyph glyph-name="infinity" unicode="&#xe001;" horiz-adv-x="751" 
d="M702 365q7 34 1.5 62.5t-21.5 49.5t-42 32.5t-60 11.5q-26 0 -52.5 -9.5t-51.5 -24.5t-48.5 -34t-43.5 -38q-11 15 -28 33.5t-37 34.5t-42 27t-44 11q-34 0 -64.5 -12t-54.5 -33t-41 -49.5t-24 -61.5q-15 -71 15.5 -114t102.5 -43q25 0 51 9t50.5 24t47.5 33t42 36
q12 -17 28 -35t35.5 -33t41.5 -24.5t46 -9.5q35 0 66.5 11.5t57 32t43.5 49.5t26 64zM638 365q-4 -20 -15 -37.5t-27 -30.5t-35 -20.5t-39 -7.5q-19 0 -36 9.5t-31 24t-25.5 31.5t-18.5 31q13 12 33 28t42 31t43.5 25.5t37.5 10.5q19 0 34 -8t24.5 -21t13 -30.5t-0.5 -35.5z
M330 362q-13 -14 -31 -30.5t-38.5 -30.5t-41 -23t-39.5 -9q-43 0 -59 27.5t-8 68.5q4 18 14 35.5t24.5 30.5t32 21t36.5 8q18 0 35 -10.5t31 -25.5t25 -32t19 -30z" />
    <glyph glyph-name="lessequal" unicode="&#xe002;" horiz-adv-x="423" 
d="M355 256q3 11 -4 18q-19 18 -46 36.5t-56 36t-58 34t-53 31.5l29 13v1q7 4 28.5 14.5t49.5 25t58.5 31t56.5 30.5t43 24.5t18 14.5q1 3 -1.5 9t-6.5 12t-8 10.5t-7 4.5t-26.5 -11.5t-57 -28.5t-73.5 -38t-76 -40t-64 -33.5t-37 -19.5l-8 -11l-3 -16l3 -11q7 -5 28.5 -20
t49.5 -34t59 -40t57 -38.5t44.5 -29t21.5 -11.5t9.5 4.5t12.5 10.5t11 12t6 9zM332 144l5 22q-2 11 -8 16l-7 4h-284q-6 -2 -13.5 -8t-10.5 -12l-5 -22l3 -8q5 -8 13 -11h284q16 5 23 19z" />
    <glyph glyph-name="greaterequal" unicode="&#xe003;" horiz-adv-x="423" 
d="M388 404l3 16l-4 11q-8 5 -29 20t-48.5 33.5t-58.5 39t-57 37.5t-44.5 28.5t-22.5 12.5q-12 -5 -23.5 -13.5t-14.5 -22.5q-2 -9 18.5 -26.5t48 -35.5t53 -33t34.5 -21l1 1q15 -10 30.5 -19.5t30.5 -19.5l-2 -1q-9 -4 -32.5 -16t-54.5 -28t-64.5 -33.5t-61.5 -33.5
t-47 -27.5t-20 -15.5q0 -3 2 -9t5.5 -12.5t8 -11t7.5 -4.5t26 11.5t57 29t73.5 38.5t75.5 40t64 34t37 20zM319 144l5 22q0 6 -5 12t-11 8h-283l-9 -4q-4 -3 -8 -7t-6 -9l-5 -22q4 -14 15 -19h283q11 3 19 11z" />
    <glyph glyph-name="summation" unicode="&#xe004;" horiz-adv-x="503" 
d="M386 16l6 27q-2 5 -5.5 11t-8.5 8q-74 -1 -148 -1h-147l277 297l4 16q-32 68 -63 135t-63 136h88q33 0 65.5 -2.5t65.5 -2.5h15q9 0 17.5 1.5t14.5 6t8 13.5q1 5 2.5 13t1.5 16t-2.5 14t-10.5 6q-64 0 -128.5 -2t-128.5 -2q-8 0 -24.5 1t-34 0.5t-31.5 -5t-16 -15.5v-6
q13 -35 29.5 -66.5t32.5 -63.5q22 -46 42.5 -92t42.5 -92q-10 -11 -36.5 -40.5t-61.5 -67.5t-72.5 -79.5t-69 -76.5t-52 -59t-21.5 -26q-2 -8 2 -13t12 -5h140q120 0 237 -3q6 2 12.5 7t8.5 12z" />
    <glyph glyph-name="product" unicode="&#xe005;" horiz-adv-x="698" 
d="M715 659l6 27q-1 6 -5.5 12t-10.5 8q-281 -3 -561 0q-6 -2 -14 -8t-10 -12q-1 -5 -2.5 -9.5t-2.5 -9.5q-2 -11 0.5 -19t15.5 -8t26.5 2.5t26.5 2.5h18q-35 -158 -71.5 -313t-71.5 -313l2 -7q4 -9 13 -12h26q5 2 11.5 6.5t10.5 8.5q73 315 144 630h291l-124 -630
q2 -4 6.5 -8.5t9.5 -6.5h25q8 3 19 12l4 7q33 158 63 313t60 313q38 0 73 -6l16 12z" />
    <glyph glyph-name="approxequal" unicode="&#xe006;" horiz-adv-x="349" 
d="M319 425q1 5 1.5 9.5t-1.5 8.5q-3 4 -7.5 7.5t-9.5 3.5q-6 0 -12 -3.5t-12.5 -7t-14 -7t-16.5 -3.5q-10 0 -22 4.5t-25.5 10.5t-27.5 10.5t-29 4.5q-9 0 -23.5 -6t-29 -15.5t-26 -20.5t-13.5 -20q-1 -2 1.5 -6t5.5 -8t7 -7t6 -3q7 0 12.5 3.5t10.5 8.5h-1q9 6 18 10.5
t19 4.5q13 0 25.5 -5t24.5 -10.5t25.5 -10.5t28.5 -5q23 0 44.5 14t38.5 32zM296 318q2 7 2 13q0 7 -8 8v2q-3 2 -5 3.5t-6 1.5q-13 -5 -27 -12.5t-28 -7.5q-13 0 -24 3.5t-22 8.5h1q-14 7 -28 12t-31 5q-9 0 -23.5 -6t-29 -15.5t-26 -20.5t-13.5 -20q-1 -5 7 -14t13 -9
q6 0 11.5 3.5t10.5 6.5h-1q9 7 18.5 12t20.5 5q12 0 24 -5t25 -10.5t26 -10.5t28 -5q23 0 45 13.5t38 31.5z" />
    <glyph glyph-name="Delta" unicode="&#xe007;" horiz-adv-x="639" 
d="M535 17q1 4 -2.5 24t-8 43.5t-9.5 44.5t-6 28l-1 -1q-23 100 -40.5 202.5t-34.5 205.5l-10 7h-62l-14 -7l-357 -545q-1 -8 3.5 -13.5t12.5 -5.5h505q7 0 14.5 4.5t9.5 12.5zM454 64h-360q72 109 141.5 216t140.5 216z" />
    </font>
</defs>
</svg>
